<svg xmlns="http://www.w3.org/2000/svg" fill="none" viewBox="0 0 512 512">
  <path fill="#614CF6" fill-rule="evenodd" d="M472.929 396.064c3.905 3.905 3.907 10.263-.142 14.019-102.927 95.484-263.807 93.168-363.922-6.948C8.749 303.02 6.433 142.14 101.917 39.213c3.756-4.049 10.113-4.047 14.019-.142l32.249 32.25c3.906 3.905 3.884 10.221.179 14.317-69.899 77.261-67.601 196.612 6.893 271.105 74.493 74.494 193.844 76.792 271.105 6.893 4.096-3.705 10.412-3.727 14.317.178l32.25 32.25z" clip-rule="evenodd"/>
  <path fill="#F6A54C" d="M416.925 82.239c7.435-1.993 14.24 4.812 12.247 12.247l-49.857 186.069c-1.992 7.435-11.287 9.926-16.73 4.482L226.374 148.826c-5.444-5.443-2.953-14.738 4.482-16.73l186.069-49.857z"/>
</svg>
