<svg xmlns="http://www.w3.org/2000/svg" viewBox="0 0 566.933 566.933">
  <path fill="#73818a" d="M285.367 511.904c-76.674 0-138.83-7.704-138.83-17.21 0-4.3 12.714-8.229 33.734-11.245.341 5.603.602 11.302.434 16.873a5.393 5.393 0 005.391 5.555h203.073a5.393 5.393 0 005.39-5.555c-.159-5.346.076-10.81.397-16.194 18.324 2.916 29.24 6.582 29.24 10.565 0 9.507-62.153 17.211-138.83 17.211"/>
  <path fill="#f2cd53" d="M253.205 66.763a.471.471 0 01-.322-.16l-1.587-1.806a.47.47 0 01.043-.664l9.224-8.106.31-.118h.031c.124.01.241.067.323.16l1.588 1.807a.47.47 0 01-.043.664l-9.225 8.105-.311.118h-.03"/>
  <path fill="#231f20" d="M260.873 55.439a.944.944 0 00-.621.233l-9.224 8.107a.941.941 0 00-.085 1.328l1.585 1.806a.946.946 0 00.647.319l.061.001c.228 0 .45-.082.621-.233l9.226-8.107a.941.941 0 00.085-1.328l-1.587-1.806a.938.938 0 00-.646-.319l-.062-.001m0 .941l1.588 1.807-9.225 8.105-1.587-1.805 9.224-8.107"/>
  <path fill="#f2cd53" d="M274.033 157.459a.47.47 0 01-.322-.159l-8.106-9.224a.47.47 0 01.042-.664l1.806-1.59.311-.117.03.002a.47.47 0 01.323.158l8.106 9.224a.47.47 0 01-.042.664l-1.806 1.59-.311.117-.03-.001"/>
  <path fill="#231f20" d="M267.764 145.235a.938.938 0 00-.621.234l-1.807 1.588a.944.944 0 00-.085 1.33l8.106 9.224a.928.928 0 00.646.317l.061.003c.228 0 .45-.083.621-.235l1.807-1.588a.944.944 0 00.085-1.33l-8.105-9.223a.934.934 0 00-.647-.318zm0 .941l8.105 9.224-1.805 1.59-8.105-9.225 1.805-1.589"/>
  <path fill="#f2cd53" d="M280.525 164.844a.47.47 0 01-.324-.159l-3.686-4.196a.469.469 0 01.042-.664l1.807-1.585.31-.117c.131 0 .26.053.354.16l3.687 4.192a.47.47 0 01-.043.664l-1.807 1.589-.31.117-.03-.001"/>
  <path fill="#231f20" d="M278.675 157.652a.935.935 0 00-.622.233l-1.805 1.587a.941.941 0 00-.087 1.33l3.687 4.194a.931.931 0 00.647.317l.06.003c.228 0 .449-.083.621-.235l1.807-1.588a.943.943 0 00.085-1.329l-3.687-4.192a.938.938 0 00-.706-.32zm0 .941l3.686 4.192-1.806 1.59-3.687-4.196 1.807-1.586"/>
  <path fill="#f2cd53" d="M283.259 72.688a.468.468 0 01-.354-.16l-8.106-9.223a.473.473 0 01.042-.665l1.81-1.588.31-.117c.13 0 .26.054.354.16l8.106 9.224a.473.473 0 01-.042.664l-1.81 1.589-.31.116"/>
  <path fill="#231f20" d="M276.961 60.464a.942.942 0 00-.621.233l-1.81 1.59a.945.945 0 00-.085 1.329l8.107 9.224a.94.94 0 001.328.085l1.81-1.588a.945.945 0 00.085-1.329l-8.107-9.224a.938.938 0 00-.707-.32m0 .941l8.107 9.224-1.81 1.59-8.106-9.224 1.81-1.59"/>
  <path fill="#f2cd53" d="M289.307 79.603a.48.48 0 01-.323-.16l-3.69-4.195a.473.473 0 01.043-.665l1.808-1.588.311-.118.03.002c.125.008.24.065.323.158l3.687 4.196a.472.472 0 01-.043.664l-1.805 1.588-.31.118h-.031"/>
  <path fill="#231f20" d="M287.456 72.407a.938.938 0 00-.621.234l-1.807 1.588a.941.941 0 00-.087 1.33l3.69 4.194a.941.941 0 00.646.319l.06.001c.228 0 .45-.082.623-.234l1.804-1.59a.942.942 0 00.085-1.328l-3.686-4.194a.94.94 0 00-.647-.318l-.06-.002m0 .941l3.685 4.196-1.804 1.588-3.689-4.195 1.808-1.589"/>
  <path fill="#bdbcbc" d="M295.423 174.915c-2.466 0-4.587-1.85-7.208-4.832l-60.696-69.07c-2.362-2.685-3.827-4.785-3.832-6.952-.006-2.013 1.213-3.908 4.208-6.54l32.237-28.33c2.727-2.398 4.583-3.376 6.403-3.376 2.388 0 4.458 1.812 7.025 4.734l60.7 69.067c2.375 2.703 3.856 4.82 3.907 7.024.048 2.096-1.15 4.02-4.134 6.641l-32.238 28.334c-2.632 2.313-4.539 3.3-6.372 3.3"/>
  <path fill="#231f20" d="M266.535 55.03c-2.031 0-4.036 1.035-6.922 3.571l-16.117 14.166-16.119 14.166c-2.329 2.046-4.482 4.326-4.476 7.13.008 2.412 1.547 4.646 4.028 7.468l60.696 69.069c2.767 3.148 5.038 5.099 7.796 5.099 2.043 0 4.103-1.044 6.891-3.495l16.121-14.167 16.119-14.166c2.212-1.944 4.465-4.326 4.399-7.248-.056-2.443-1.611-4.69-4.102-7.524l-60.7-69.068c-2.71-3.087-4.93-5-7.614-5m0 1.569c2.014 0 3.85 1.523 6.437 4.467l60.699 69.068c4.726 5.377 5.222 7.832-.155 12.557l-16.119 14.167-16.12 14.166c-2.388 2.099-4.184 3.106-5.856 3.106-2.09 0-3.99-1.578-6.617-4.567l-60.696-69.07c-4.728-5.375-5.073-7.658.305-12.382l16.118-14.167 16.118-14.166c2.434-2.139 4.22-3.179 5.886-3.179"/>
  <path fill="#59c9de" d="M233.073 100.603l39.367-34.598 57.244 65.139-39.365 34.595-57.246-65.136"/>
  <path fill="#231f20" d="M272.483 65.34l-40.074 35.22 57.867 65.843 40.072-35.216-57.865-65.847m-.086 1.33L329.02 131.1l-38.656 33.974-56.626-64.43 38.66-33.976"/>
  <path fill="#53989c" d="M259.905 131.845L232.41 100.56l27.496 31.285M232.41 100.56l31.287-27.499-31.287 27.499"/>
  <path fill="#27b7c2" d="M259.99 130.516l-26.253-29.87 29.874-26.255-3.62 56.125"/>
  <path fill="#0f161c" d="M259.905 131.845L232.41 100.56l31.287-27.497-.085 1.328-29.874 26.254 26.254 29.871-.086 1.33"/>
  <path fill="#53989c" d="M275.235 149.29l-9.142-10.4h.002l9.14 10.398v.003M280.092 74l-7.61-8.66 7.61 8.66"/>
  <path fill="#27b7c2" d="M275.32 147.959l-8.587-9.771c.348-.51.575-1.148.626-1.917l4.456-69.09.582-.512 7.61 8.659-4.687 72.63"/>
  <path fill="#0f161c" d="M275.235 149.288l-9.14-10.399c.24-.2.456-.433.638-.701l8.587 9.77-.085 1.33m4.772-73.96l-7.61-8.659-.582.512.085-1.326.583-.515 7.609 8.66-.085 1.328"/>
  <path fill="#53989c" d="M290.276 166.403l-7.833-8.911 7.833 8.91.683-.598-.683.599"/>
  <path fill="#27b7c2" d="M290.363 165.075l-7.835-8.914 4.685-72.632 8.435 9.598-4.604 71.348-.681.6"/>
  <path fill="#0f161c" d="M290.276 166.403l-7.833-8.912.085-1.33 7.835 8.914.681-.6-.085 1.329-.683.599m5.372-73.276l-8.435-9.598.087-1.326 8.433 9.596-.085 1.328"/>
  <path fill="#27b7c2" d="M299.247 157.265l3.608-55.937 26.164 29.773-29.772 26.164"/>
  <path fill="#0f161c" d="M299.161 158.596l.086-1.33 29.772-26.165-26.164-29.773.085-1.328 27.408 31.187-31.187 27.408"/>
  <path fill="#82939d" d="M293.535 175.383a7.417 7.417 0 01-1.318-.606l.003-.002c.433.252.87.456 1.315.608m5.788-.922c.814-.49 1.685-1.137 2.641-1.954-.827.708-1.71 1.398-2.641 1.954M315.97 160.2l2.462-2.163 16.119-14.166c2.05-1.802 4.135-3.979 4.377-6.615-.242 2.637-2.326 4.813-4.377 6.616L315.971 160.2m22.981-23.441l-.001-.136c-.056-2.443-1.611-4.69-4.102-7.524L290.86 79.045h.001l43.99 50.054c2.489 2.836 4.045 5.08 4.1 7.522l.001.138M223.907 97.5l-.02-.036.02.036m-.982-2.937l-.001-.015.001.015m.043-1.363c.377-2.417 2.323-4.436 4.41-6.268l8.717-7.661-8.718 7.662c-2.085 1.831-4.03 3.851-4.409 6.267m62.963-19.764l-1.147-1.304.001-.001 1.147 1.304-.001.001m-10.496-11.943l-1.286-1.462c-2.71-3.087-4.93-5-7.614-5h-.046.058c.236 0 .474.014.714.046 2.39.318 4.41 2.131 6.89 4.954l1.285 1.461-.001.001m-13.174-4.96l-.001-.002c.197-.128.396-.252.596-.368-.195.114-.392.237-.595.37"/>
  <path fill="#b3963d" d="M259.908 58.345a26.82 26.82 0 011.575-1.272l.002.003c-.497.368-1.02.79-1.577 1.27"/>
  <path fill="#231f20" d="M261.485 57.076l-.002-.003c.257-.189.516-.37.777-.542l.001.002c-.252.167-.51.347-.776.543"/>
  <path fill="#b3963d" d="M284.163 71.424l-8.107-9.224h.001l8.107 9.224h-.001"/>
  <path fill="#231f20" d="M284.784 72.132l-.621-.708h.001l.621.707-.001.001m-8.728-9.932l-.621-.707.001-.001.621.708h-.001"/>
  <path fill="#b3963d" d="M290.239 78.339l-3.687-4.196h.001l3.687 4.194-.001.002"/>
  <path fill="#231f20" d="M290.86 79.045l-.621-.706.001-.002.621.708h-.001m-4.308-4.902l-.621-.707.001-.001.621.708h-.001"/>
  <path fill="#908e8e" d="M295.421 174.13c-.657 0-1.294-.155-1.942-.462l42.26-37.139-68.084-77.474-42.536 37.38c-1.451-2.86-.511-4.982 3.294-8.323l16.118-14.167 16.118-14.166c2.434-2.139 4.22-3.179 5.886-3.179 2.014 0 3.85 1.523 6.437 4.467l60.699 69.068c4.726 5.377 5.222 7.832-.155 12.557l-16.119 14.167-16.12 14.166c-2.388 2.099-4.184 3.106-5.856 3.106"/>
  <path fill="#231f20" d="M295.401 175.697c-.278 0-.56-.02-.842-.064a6.01 6.01 0 01-1.024-.25 7.359 7.359 0 01-1.315-.608l1.259-1.107c.648.307 1.285.463 1.942.463 1.672 0 3.468-1.007 5.856-3.106l16.12-14.166 16.119-14.167c5.377-4.725 4.881-7.18.155-12.557l-60.699-69.068c-2.587-2.944-4.423-4.467-6.437-4.467-1.666 0-3.452 1.04-5.886 3.179l-16.118 14.166-16.118 14.167c-3.805 3.341-4.745 5.463-3.294 8.323l-1.212 1.065-.02-.036c-.374-.681-.65-1.347-.814-2.015a6.233 6.233 0 01-.148-.878v-.008l-.001-.015a5.43 5.43 0 01.044-1.348c.379-2.416 2.324-4.436 4.41-6.267l8.717-7.662L259.616 58.6l.292-.255c.557-.48 1.08-.901 1.577-1.269.266-.196.524-.376.776-.543.203-.133.4-.256.595-.37 1.161-.676 2.372-1.119 3.633-1.132h.046c2.684 0 4.904 1.913 7.614 5l1.286 1.462.621.707 8.107 9.224.621.708 1.147 1.304.621.707 3.687 4.196.621.706 43.99 50.054c2.49 2.834 4.045 5.081 4.1 7.524.002.045.002.09.002.136 0 .168-.008.333-.023.497-.242 2.636-2.326 4.813-4.377 6.615l-16.119 14.166-2.462 2.163-13.658 12.003c-.114.101-.23.202-.349.304-.956.817-1.827 1.464-2.641 1.954-1.232.736-2.547 1.236-3.922 1.236"/>
  <path fill="#a281c8" d="M242.637 86.336a2.239 2.239 0 01-1.677-.757 2.239 2.239 0 01.204-3.151l12.212-10.733a2.234 2.234 0 013.15.204 2.234 2.234 0 01-.203 3.149l-12.211 10.733c-.41.358-.933.555-1.475.555"/>
  <path fill="#231f20" d="M254.85 70.543c-.689 0-1.351.249-1.867.702L240.769 81.98a2.836 2.836 0 00-.258 3.993 2.837 2.837 0 003.994.259l12.212-10.735a2.83 2.83 0 00-1.868-4.953zm0 1.194a1.634 1.634 0 011.079 2.861l-12.212 10.733a1.63 1.63 0 01-2.308-.148 1.633 1.633 0 01.15-2.306l12.212-10.733c.31-.272.696-.407 1.078-.407"/>
  <path fill="#7b7979" d="M235.37 93.599a3.114 3.114 0 01-2.337-1.056 3.114 3.114 0 01.284-4.387 3.102 3.102 0 012.051-.773c.895 0 1.745.384 2.337 1.054a3.115 3.115 0 01-.285 4.39 3.106 3.106 0 01-2.05.772"/>
  <path fill="#231f20" d="M235.368 86.784c-.9 0-1.77.328-2.445.923a3.714 3.714 0 00-.339 5.229 3.71 3.71 0 002.787 1.261c.9 0 1.768-.328 2.444-.922a3.71 3.71 0 00.34-5.231 3.714 3.714 0 00-2.787-1.26zm0 1.197a2.511 2.511 0 11.003 5.019 2.511 2.511 0 01-.003-5.019"/>
  <path fill="#a281c8" d="M311.247 157.47c-.814 0-1.588-.351-2.126-.962a2.804 2.804 0 01-.694-2.047 2.796 2.796 0 01.956-1.938l4.741-4.172a2.821 2.821 0 013.99.259c.498.563.746 1.289.698 2.042a2.808 2.808 0 01-.956 1.944l-4.744 4.17a2.82 2.82 0 01-1.865.703"/>
  <path fill="#231f20" d="M315.99 147.175c-.8 0-1.573.292-2.177.821l-4.742 4.172a3.274 3.274 0 00-1.115 2.263 3.28 3.28 0 00.81 2.389 3.305 3.305 0 002.48 1.121c.802 0 1.575-.292 2.178-.822l4.743-4.168a3.274 3.274 0 001.116-2.268 3.268 3.268 0 00-.816-2.387 3.293 3.293 0 00-2.476-1.121zm0 .944c.654 0 1.305.27 1.769.801a2.348 2.348 0 01-.215 3.321l-4.743 4.17a2.347 2.347 0 01-1.554.586 2.35 2.35 0 01-1.552-4.12l4.741-4.172a2.35 2.35 0 011.555-.586"/>
  <path fill="#fff" d="M235.37 92.281a1.792 1.792 0 01-1.346-.608 1.793 1.793 0 113.133-1.068c-.03.478-.245.915-.604 1.231-.329.287-.749.445-1.184.445"/>
  <path fill="#231f20" className="jth-svg-fill" d="M235.37 88.543a1.95 1.95 0 000 3.896c.471 0 .929-.172 1.286-.484a1.93 1.93 0 00.657-1.34 1.933 1.933 0 00-.481-1.411 1.944 1.944 0 00-1.461-.661zm0 .314c.454 0 .905.187 1.226.555a1.633 1.633 0 01-1.227 2.712 1.633 1.633 0 11.001-3.267M416.367 343.292l3.401-1.952a1.96 1.96 0 10-1.95-3.401l-3.402 1.95a1.962 1.962 0 001.95 3.403zm13.606-7.808l13.607-7.807a1.961 1.961 0 10-1.952-3.401l-13.605 7.807a1.959 1.959 0 00-.726 2.676 1.959 1.959 0 002.676.725zm27.212-15.615l3.402-1.952a1.961 1.961 0 00-1.95-3.401l-3.402 1.952a1.96 1.96 0 101.95 3.401zm13.607-7.806l13.605-7.807a1.959 1.959 0 00.726-2.676 1.959 1.959 0 00-2.676-.725l-13.607 7.806a1.961 1.961 0 001.952 3.402zm27.212-15.615l3.401-1.95a1.962 1.962 0 00-1.95-3.403l-3.402 1.952a1.959 1.959 0 00-.725 2.676 1.959 1.959 0 002.676.725zm13.607-7.807l13.606-7.808a1.961 1.961 0 00-1.952-3.401l-13.606 7.808a1.961 1.961 0 001.952 3.401zm27.212-15.614l3.401-1.952a1.96 1.96 0 10-1.95-3.401l-3.402 1.951a1.96 1.96 0 101.95 3.402M335.773 186.219l1.958-3.399a1.962 1.962 0 00-3.399-1.959l-1.957 3.4a1.962 1.962 0 003.398 1.958zm7.828-13.595l7.828-13.595a1.96 1.96 0 10-3.398-1.957l-7.828 13.595a1.963 1.963 0 00.72 2.678c.938.54 2.137.218 2.678-.721zm15.656-27.188l1.958-3.399a1.961 1.961 0 00-3.399-1.957l-1.957 3.399a1.96 1.96 0 103.399 1.957zm7.828-13.595l7.83-13.593a1.962 1.962 0 10-3.399-1.957l-7.83 13.593a1.96 1.96 0 103.399 1.957zm15.658-27.188l1.957-3.398a1.962 1.962 0 00-3.399-1.957l-1.957 3.398a1.963 1.963 0 00.72 2.679c.939.54 2.137.217 2.679-.722zm7.828-13.593l7.828-13.595A1.962 1.962 0 00395 75.508l-7.828 13.595a1.963 1.963 0 00.72 2.678c.94.54 2.137.216 2.679-.721M414.892 435.812l3.793.998a1.959 1.959 0 002.395-1.396 1.959 1.959 0 00-1.397-2.395l-3.792-.999a1.959 1.959 0 00-2.395 1.397 1.959 1.959 0 001.396 2.395zm15.17 3.993l15.171 3.992a1.96 1.96 0 002.395-1.397 1.96 1.96 0 00-1.397-2.395l-15.171-3.993a1.96 1.96 0 10-.997 3.793zm30.34 7.986l3.794.997a1.96 1.96 0 00.999-3.792l-3.794-.998a1.96 1.96 0 10-.998 3.793zm15.171 3.992l15.171 3.993a1.96 1.96 0 002.395-1.397 1.96 1.96 0 00-1.396-2.396l-15.171-3.992a1.96 1.96 0 10-.999 3.792zm30.342 7.985l3.792.999a1.96 1.96 0 10.998-3.794l-3.793-.997a1.959 1.959 0 00-2.395 1.397 1.959 1.959 0 001.398 2.395zm15.169 3.993l6.29 1.656a1.96 1.96 0 10.998-3.793l-6.29-1.655a1.961 1.961 0 00-.999 3.792M152.519 339.89l-3.403-1.951a1.96 1.96 0 10-1.95 3.401l3.4 1.952a1.963 1.963 0 002.678-.725 1.963 1.963 0 00-.725-2.678zm-13.607-7.807l-13.607-7.807a1.96 1.96 0 10-1.95 3.401l13.605 7.807a1.96 1.96 0 101.952-3.401zm-27.213-15.615l-3.402-1.952a1.96 1.96 0 10-1.95 3.401l3.4 1.952a1.96 1.96 0 101.952-3.401zm-13.606-7.807l-13.606-7.806a1.96 1.96 0 10-1.951 3.401l13.606 7.807a1.96 1.96 0 101.951-3.402zM70.88 293.047l-3.4-1.952a1.962 1.962 0 00-1.952 3.402l3.401 1.951a1.96 1.96 0 101.951-3.401zm-13.606-7.807l-13.606-7.807a1.96 1.96 0 10-1.952 3.401l13.607 7.807a1.96 1.96 0 101.951-3.401zm-27.212-15.615l-3.402-1.952a1.961 1.961 0 00-1.951 3.403l3.401 1.952a1.962 1.962 0 001.952-3.403M234.56 184.261l-1.957-3.4a1.962 1.962 0 00-3.4 1.959l1.958 3.399a1.96 1.96 0 103.399-1.958zm-7.83-13.594l-7.827-13.595a1.962 1.962 0 00-3.399 1.957l7.828 13.595a1.962 1.962 0 003.399-1.957zm-15.655-27.188l-1.958-3.399a1.96 1.96 0 00-3.399 1.957l1.958 3.399a1.962 1.962 0 002.679.721 1.963 1.963 0 00.72-2.678zm-7.828-13.595l-7.83-13.593a1.96 1.96 0 10-3.398 1.957l7.829 13.593a1.962 1.962 0 003.399-1.957zm-15.658-27.188l-1.956-3.399a1.962 1.962 0 00-3.4 1.957l1.958 3.4a1.962 1.962 0 003.399-1.957zm-7.828-13.593l-7.828-13.595a1.962 1.962 0 00-3.398 1.957l7.828 13.595a1.962 1.962 0 003.399-1.957M151.044 432.02l-3.793.999a1.96 1.96 0 10.999 3.792l3.791-.999a1.959 1.959 0 001.398-2.395 1.96 1.96 0 00-2.395-1.397zm-15.17 3.992l-15.171 3.993a1.96 1.96 0 10.998 3.792l15.17-3.992a1.96 1.96 0 10-.998-3.793zm-30.342 7.986l-3.792.998a1.96 1.96 0 10.997 3.792l3.794-.997a1.96 1.96 0 10-.999-3.793zm-15.17 3.993l-15.17 3.992a1.96 1.96 0 10.998 3.793l15.17-3.993a1.96 1.96 0 10-.998-3.792zm-30.34 7.985l-3.793.997a1.96 1.96 0 10.998 3.794l3.792-1a1.96 1.96 0 10-.998-3.792zm-15.17 3.992l-6.292 1.656a1.96 1.96 0 00.998 3.793l6.29-1.657a1.96 1.96 0 10-.998-3.792"/>
  <path fill="#fbcbbd" d="M173.501 356.899a9.733 9.733 0 01-3.8-.788c-7.192-2.842-13.746-15.006-13.436-25.007.206-6.575 3.287-11.16 8.678-12.91a12.66 12.66 0 013.86-.6c7.549 0 14.29 6.398 16.154 12.591l17.768 20.102a2.48 2.48 0 01-3.204 3.726c-2.817-1.82-6-2.782-9.206-2.782-1.355 0-2.723.17-4.067.505-1.435.356-2.915 1.23-4.483 2.156-2.385 1.41-5.089 3.007-8.264 3.007"/>
  <path fill="#231f20" d="M168.803 315.115c-1.572 0-3.12.24-4.602.71-6.393 2.078-10.178 7.615-10.414 15.203-.312 9.987 6.036 23.8 15.002 27.39a12.19 12.19 0 004.712.96c3.854 0 6.999-1.857 9.526-3.35 1.408-.832 2.737-1.616 3.82-1.887a14.471 14.471 0 013.468-.43c2.728 0 5.445.825 7.86 2.385a4.937 4.937 0 002.689.795 4.96 4.96 0 003.72-8.247l-17.424-19.712c-2.33-6.87-9.644-13.817-18.357-13.817zm0 4.961c6.366 0 12.524 5.73 13.916 11.323l18.148 20.53c-3.227-2.084-6.84-3.178-10.552-3.178-1.546 0-3.11.189-4.667.577-4.18 1.04-7.79 5.09-12.147 5.09-.908 0-1.849-.177-2.834-.593-9.924-3.921-18.44-28.893-4.959-33.273a10.137 10.137 0 013.095-.476"/>
  <path fill="#231f20" d="M172.672 340.308c-2.819.193-5.464-4.472-2.83-6.353 1.547-1.106.063-3.69-1.502-2.571-4.892 3.496-1.696 12.312 4.332 11.901 1.904-.13 1.916-3.108 0-2.977"/>
  <path fill="#fbcbbd" d="M391.385 356.899c-3.173 0-5.877-1.596-8.262-3.006-1.568-.925-3.05-1.801-4.484-2.157a16.85 16.85 0 00-4.067-.505c-3.207 0-6.39.962-9.205 2.782a2.478 2.478 0 01-3.227-.466 2.48 2.48 0 01.023-3.26l17.768-20.102c1.864-6.193 8.605-12.59 16.154-12.59 1.316 0 2.611.2 3.848.594 5.403 1.755 8.484 6.34 8.688 12.915.312 10.001-6.244 22.165-13.488 25.03a9.655 9.655 0 01-3.746.765h-.002"/>
  <path fill="#231f20" d="M396.085 315.115c-8.713 0-16.028 6.948-18.357 13.817l-17.424 19.712a4.961 4.961 0 006.41 7.45c2.413-1.56 5.13-2.383 7.858-2.383 1.153 0 2.32.146 3.468.43 1.084.271 2.413 1.055 3.821 1.887 2.528 1.493 5.672 3.35 9.526 3.35a12.18 12.18 0 004.71-.96c8.968-3.589 15.315-17.403 15.004-27.391-.237-7.587-4.022-13.124-10.389-15.192a15.18 15.18 0 00-4.627-.72zm0 4.961c1.034 0 2.071.15 3.095.476 13.48 4.38 4.964 29.352-4.959 33.273a7.203 7.203 0 01-2.834.592c-4.358 0-7.967-4.049-12.148-5.089a19.276 19.276 0 00-4.667-.577c-3.71 0-7.327 1.094-10.55 3.178l18.147-20.53c1.392-5.594 7.55-11.323 13.916-11.323"/>
  <path fill="#231f20" d="M392.216 343.285c6.028.412 9.223-8.408 4.33-11.901-1.567-1.117-3.05 1.465-1.503 2.57 2.636 1.882-.007 6.547-2.827 6.354-1.916-.13-1.904 2.847 0 2.977"/>
  <path fill="#fbcbbd" d="M261.663 421.332a3.177 3.177 0 01-3.17-3.43c.371-4.682 1.294-9.846 2.271-15.313 1.983-11.094 4.032-22.565 1.723-31.112-2.082-8.741-6.107-13.776-11.987-15.053a3.179 3.179 0 01.676-6.285h68.865a3.178 3.178 0 01.676 6.285c-7.57 1.647-10.4 8.8-10.521 14.427-.193 8.933 1.65 18.72 3.435 28.182 1.26 6.691 2.452 13.01 2.914 18.871a3.18 3.18 0 01-3.169 3.428h-51.713"/>
  <path fill="#231f20" d="M320.048 346.96h-68.872a6.357 6.357 0 00-1.35 12.57c4.582.997 7.794 5.233 9.545 12.59l.046.187c2.124 7.858.05 19.474-1.782 29.722-.992 5.547-1.928 10.786-2.311 15.623a6.36 6.36 0 006.339 6.86h51.713a6.36 6.36 0 006.339-6.86c-.476-6.03-1.683-12.43-2.96-19.207-1.754-9.304-3.567-18.924-3.38-27.526.1-4.659 2.236-10.075 7.92-11.367a6.363 6.363 0 005.108-6.235 6.354 6.354 0 00-6.355-6.357m-.007 6.357c-8.481 1.844-12.85 9.506-13.022 17.464-.339 15.602 5.25 33.362 6.357 47.372h-51.713c1.108-14.01 7.58-33.864 3.893-47.505-1.843-7.741-5.899-15.487-14.38-17.33h68.865m0 0h.007-.007"/>
  <path fill="#a1e0f2" d="M186.096 503.181c-.73 0-1.427-.296-1.935-.82a2.693 2.693 0 01-.76-1.957c.214-7.124-.256-14.382-.71-21.4-1.079-16.655-2.194-33.877 5.632-50.832 8.45-18.416 25.16-24.79 41.32-30.953 7.928-3.024 15.416-5.879 21.886-10.067a2.707 2.707 0 012.426-.255c.802.306 1.41.975 1.64 1.803 1.266 4.603 4.349 10.433 5.802 12.875 5.503 9.232 14.564 9.984 24.97 9.984 7.037 0 19.853-1.295 26.629-9.962 2.87-3.672 4.56-8.48 4.755-13.54a2.695 2.695 0 014.28-2.077c6.934 5.041 15.249 8.21 24.053 11.564 15.972 6.087 32.487 12.38 40.861 30.635 7.824 16.95 6.71 34.176 5.631 50.833-.455 7.016-.924 14.27-.712 21.392a2.693 2.693 0 01-.76 1.957 2.694 2.694 0 01-1.935.82H186.096"/>
  <path fill="#231f20" d="M320.444 382.768a5.399 5.399 0 00-5.388 5.185c-.17 4.434-1.696 8.8-4.184 11.982-6.299 8.057-19.235 8.926-24.505 8.926-9.908 0-17.868-.637-22.654-8.668-1.613-2.709-4.414-8.198-5.52-12.209a5.389 5.389 0 00-5.198-3.96 5.386 5.386 0 00-2.93.865c-6.233 4.032-13.592 6.839-21.382 9.811-15.891 6.06-33.902 12.93-42.814 32.353-8.106 17.566-6.969 35.135-5.869 52.126.45 6.956.916 14.148.705 21.143a5.393 5.393 0 005.391 5.555h203.073a5.393 5.393 0 005.39-5.555c-.208-6.991.257-14.183.708-21.136 1.1-16.994 2.237-34.565-5.876-52.145-8.83-19.244-26.636-26.029-42.347-32.017-8.63-3.288-16.784-6.395-23.428-11.224a5.39 5.39 0 00-3.172-1.032m.001 5.393c20.132 14.631 51.704 14.232 64.05 41.142 10.785 23.366 3.956 47.093 4.674 71.18H186.096c.721-24.087-6.11-47.814 4.675-71.18 11.978-26.106 42.056-26.839 62.224-39.887 1.288 4.675 4.362 10.641 6.086 13.537 6.343 10.646 17.094 11.302 27.286 11.302 10.196 0 22.173-2.58 28.753-10.998 3.516-4.494 5.132-10.064 5.325-15.096"/>
  <path fill="#b0a3a5" d="M324.444 348.725a6.333 6.333 0 00-4.396-1.765h-68.872c-.837 0-1.64.163-2.377.46a6.36 6.36 0 01-1.922-5.272 6.357 6.357 0 016.319-5.679h68.872a6.36 6.36 0 012.376 12.256"/>
  <path fill="#f8a491" d="M309.372 396.817c-7-13.936-20.15-22.47-34.448-22.47a36.68 36.68 0 00-8.5 1.006 31.224 31.224 0 00-.868-4.705c-.91-3.828-2.364-7.659-4.625-10.775-.775-2.661-1.77-4.848-2.979-6.556h59.357c-.262.371-.514.764-.757 1.18-6.192 2.935-9.387 9.502-9.533 16.284-.156 7.194.948 14.844 2.29 22.376-.001 1.227.02 2.447.063 3.66"/>
  <path fill="#221815" d="M309.31 393.157c-1.343-7.532-2.447-15.182-2.291-22.376.146-6.782 3.341-13.349 9.533-16.284-1.11 1.906-2.005 4.286-2.683 7.134l-.049.186c-3.01 11.132-4.495 21.458-4.51 31.34M264.48 375.87a137.504 137.504 0 00-3.041-14.052l-.047-.186a36.442 36.442 0 00-.462-1.758c2.261 3.116 3.714 6.947 4.625 10.775.405 1.499.687 3.072.868 4.705-.647.154-1.295.326-1.943.516m52.828-22.552h-59.357c-1.643-2.318-3.683-3.75-6.105-4.278a6.328 6.328 0 01-3.048-1.619 6.343 6.343 0 012.377-.46h68.872c1.707 0 3.255.672 4.396 1.765-.36.146-.737.259-1.127.338-2.38.542-4.386 1.966-6.008 4.254"/>
  <path fill="#fbcbbd" d="M275.688 393.767c-44.237 0-79.21-17.899-93.556-47.879-12.77-25.527-14.473-57.37-4.53-85.13 12.045-33.647 38.565-58.363 72.757-67.814a130.465 130.465 0 0134.768-4.723c29.153 0 55.856 9.842 75.188 27.714 6.866 6.348 13.201 14.286 18.32 22.953 14.848 24.523 19.748 55.963 13.086 84.075-1.957 8.257-4.776 16.189-8.152 22.938-14.309 29.942-49.284 47.854-93.533 47.863l-14.324.003h-.024"/>
  <path fill="#231f20" d="M285.128 185.041a133.714 133.714 0 00-35.616 4.838c-35.203 9.73-62.504 35.174-74.904 69.806-10.223 28.546-8.472 61.298 4.681 87.626 8.192 17.092 22.124 30.132 41.41 38.762 20.084 8.987 40.989 10.874 54.99 10.874l14.347-.003c14.004-.003 34.913-1.895 54.999-10.89 19.288-8.637 33.217-21.686 41.404-38.782 3.473-6.955 6.368-15.105 8.376-23.577 6.846-28.892 1.814-61.21-13.462-86.455-5.269-8.917-11.797-17.092-18.881-23.64-19.921-18.416-47.388-28.559-77.344-28.559zm0 6.359c26.613-.001 53.136 8.48 73.028 26.87 6.883 6.362 12.975 14.162 17.741 22.234 14.524 23.988 19.2 54.42 12.731 81.725-1.785 7.534-4.433 15.315-7.901 22.25-16.214 33.925-55.664 46.1-90.692 46.106l-14.324.003h-.022c-35.022 0-74.462-12.16-90.689-46.072-12.601-25.19-13.863-56.279-4.407-82.687 11.704-32.686 37.167-56.577 70.612-65.822a127.752 127.752 0 0133.923-4.607"/>
  <path fill="#231f20" d="M264.293 360.917c9.918 9.619 29.044 9.344 38.898-.182 3.541-3.427-1.86-8.816-5.396-5.396-6.83 6.605-21.208 6.874-28.106.182-3.532-3.426-8.933 1.964-5.396 5.396M234.128 331.516a6.468 6.468 0 01-8.873 2.21 6.466 6.466 0 016.662-11.08 6.464 6.464 0 012.211 8.87M224.457 318.081c2.012-2.553 5.132-2.641 7.94-1.33 2.214 1.036 4.152-2.254 1.924-3.294-4.217-1.97-9.452-2.021-12.562 1.926-1.504 1.909 1.176 4.629 2.698 2.698M336.536 330.347a6.461 6.461 0 008.868 2.21 6.463 6.463 0 10-6.659-11.081 6.462 6.462 0 00-2.209 8.87M348.904 314.213c-3.108-3.949-8.345-3.896-12.561-1.925-2.228 1.04-.29 4.33 1.924 3.295 2.808-1.312 5.928-1.226 7.938 1.329 1.522 1.932 4.202-.788 2.699-2.699"/>
  <path fill="#845333" d="M347.535 285.37a3.178 3.178 0 01-3.175-3.33c.16-3.372.248-6.748.263-10.037.005-1.199-.342-2.159-1.031-2.851-.773-.776-1.965-1.221-3.27-1.221-.445 0-4.347.114-4.365 4.1a249.291 249.291 0 01-.26 10.304 3.176 3.176 0 01-3.174 3.034h-28.691a3.178 3.178 0 01-3.179-3.137l-.02-1.545c-.04-3.026-.08-6.052-.092-9.08-.016-3.986-3.917-4.1-4.361-4.1-1.305 0-2.497.445-3.27 1.222-.69.692-1.038 1.652-1.033 2.852.01 2.687.044 5.374.078 8.058l.032 2.514a3.182 3.182 0 01-3.18 3.216h-26.179a3.18 3.18 0 01-3.177-3.064 165.11 165.11 0 00-.854-12.061c-.376-3.43-3.426-4.345-5.169-4.345-1.223 0-2.313.402-2.917 1.076-.532.593-.739 1.46-.616 2.577.437 4.008.728 8.105.886 12.525.031.862-.289 1.7-.889 2.32a3.17 3.17 0 01-2.288.972h-26.29a3.179 3.179 0 01-3.177-3.085c-.118-4.045-.232-8.396-.25-12.796-.018-3.985-3.918-4.1-4.363-4.1-1.304 0-2.496.445-3.27 1.223-.689.692-1.035 1.65-1.031 2.85.016 4.278.128 8.602.245 12.636a3.176 3.176 0 01-3.177 3.272h-30.744a3.177 3.177 0 01-3.146-3.637c1.052-7.221 2.802-14.279 5.2-20.975 12.046-33.646 38.566-58.362 72.758-67.813a130.465 130.465 0 0134.768-4.723c29.153 0 55.856 9.842 75.188 27.714 6.866 6.348 13.201 14.286 18.32 22.953 7.656 12.643 12.822 27.479 14.924 42.872a3.18 3.18 0 01-3.15 3.61h-42.874"/>
  <path fill="#231f20" d="M285.128 185.041v6.359-6.359a133.69 133.69 0 00-35.616 4.838c-35.203 9.73-62.504 35.174-74.904 69.806-2.47 6.896-4.27 14.159-5.353 21.588a6.358 6.358 0 006.292 7.275h30.744a6.358 6.358 0 006.354-6.543c-.117-4.013-.228-8.312-.242-12.554-.002-.323.05-.544.104-.598.11-.11.484-.286 1.017-.286 1.179 0 1.181.496 1.183.933.02 4.436.133 8.81.253 12.879a6.357 6.357 0 006.355 6.169h26.289a6.354 6.354 0 006.355-6.585c-.162-4.498-.458-8.67-.904-12.755l-.01-.097c.103-.02.231-.034.383-.034.433 0 1.856.11 2.01 1.515.41 3.753.683 7.624.835 11.83a6.357 6.357 0 006.355 6.126h26.179a6.358 6.358 0 006.358-6.432l-.03-2.52c-.035-2.675-.07-5.35-.079-8.027-.001-.321.052-.542.105-.597.111-.11.484-.285 1.019-.285 1.179 0 1.181.494 1.181.93.014 3.04.054 6.078.094 9.111l.02 1.545a6.358 6.358 0 006.357 6.275h28.69a6.357 6.357 0 006.351-6.07c.16-3.526.25-7.037.264-10.434.002-.437.003-.935 1.186-.935.533 0 .906.175 1.017.286.052.053.105.274.104.596a232.729 232.729 0 01-.26 9.898 6.359 6.359 0 006.35 6.659h42.875a6.353 6.353 0 004.79-2.177 6.35 6.35 0 001.509-5.04c-2.157-15.81-7.467-31.055-15.355-44.091-5.269-8.919-11.797-17.092-18.881-23.64-19.919-18.415-47.388-28.557-77.344-28.559zm0 6.359c26.61.001 53.139 8.481 73.028 26.87 6.883 6.362 12.975 14.162 17.741 22.234 7.619 12.583 12.499 26.94 14.512 41.687h-42.874c.16-3.382.252-6.772.268-10.174.02-4.845-3.724-7.266-7.48-7.266-3.756.001-7.523 2.424-7.544 7.266-.015 3.402-.103 6.791-.256 10.174h-28.691c-.045-3.53-.097-7.063-.112-10.598-.019-4.842-3.784-7.265-7.54-7.265-3.756 0-7.501 2.421-7.483 7.265.014 3.535.068 7.068.11 10.598h-26.179a170.28 170.28 0 00-.87-12.292c-.523-4.774-4.563-7.179-8.33-7.179-3.745 0-7.221 2.38-6.693 7.179.448 4.101.722 8.198.869 12.292h-26.29c-.123-4.238-.23-8.475-.249-12.716-.02-4.844-3.785-7.266-7.541-7.266-3.755 0-7.5 2.422-7.48 7.266.016 4.241.123 8.478.247 12.716h-30.744c1.016-6.968 2.701-13.808 5.046-20.362 11.704-32.686 37.167-56.577 70.612-65.822a127.643 127.643 0 0133.923-4.607"/>
  <path fill="#869ed2" d="M186.096 503.181c-.73 0-1.427-.296-1.935-.82a2.693 2.693 0 01-.76-1.957c.214-7.124-.256-14.382-.71-21.4-1.079-16.655-2.192-33.877 5.632-50.832 3.96-8.637 10.23-15.483 19.165-20.923a2.697 2.697 0 014.099 2.303v90.932a2.696 2.696 0 01-2.696 2.697h-22.795"/>
  <path fill="#231f20" d="M208.89 404.159a5.38 5.38 0 00-2.805.788c-9.408 5.728-16.021 12.96-20.216 22.108-8.106 17.564-6.969 35.133-5.869 52.124.45 6.956.916 14.148.705 21.143a5.393 5.393 0 005.391 5.555h22.795a5.393 5.393 0 005.392-5.393v-90.932a5.39 5.39 0 00-5.392-5.393zm0 5.393v90.932h-22.794c.721-24.088-6.11-47.815 4.675-71.181 4.206-9.175 10.656-15.207 18.12-19.751"/>
  <path fill="#869ed2" d="M366.57 503.181a2.698 2.698 0 01-2.697-2.697v-90.736a2.696 2.696 0 014.099-2.304c8.833 5.377 15.039 12.159 18.973 20.733 7.824 16.952 6.71 34.178 5.631 50.835-.455 7.016-.924 14.27-.712 21.392a2.688 2.688 0 01-.76 1.957 2.694 2.694 0 01-1.935.82h-22.598"/>
  <path fill="#231f20" d="M366.57 404.355a5.393 5.393 0 00-5.393 5.393v90.736a5.393 5.393 0 005.394 5.393h22.598a5.393 5.393 0 005.39-5.555c-.208-6.991.257-14.183.708-21.136 1.1-16.993 2.237-34.565-5.876-52.145-4.162-9.068-10.71-16.234-20.016-21.901a5.397 5.397 0 00-2.804-.785zm0 5.393c7.38 4.492 13.751 10.46 17.925 19.555 10.785 23.366 3.956 47.093 4.674 71.18h-22.598v-90.735"/>
  <path fill="#869ed2" d="M291.133 430.016a3.497 3.497 0 11-6.995 0 3.497 3.497 0 016.995 0"/>
  <path fill="#231f20" d="M291.133 430.016h-2.697c0 .436-.361.8-.803.8a.806.806 0 01-.8-.8.803.803 0 01.8-.801c.444 0 .803.361.803.801H293.829a6.195 6.195 0 10-6.196 6.193 6.198 6.198 0 006.196-6.193h-2.696"/>
  <path fill="#869ed2" d="M291.133 455.019a3.5 3.5 0 01-3.5 3.497 3.495 3.495 0 01-3.494-3.497 3.496 3.496 0 116.994 0"/>
  <path fill="#231f20" d="M291.133 455.019h-2.697a.802.802 0 01-1.603 0 .806.806 0 01.8-.802c.442 0 .803.364.803.802H293.829a6.198 6.198 0 00-6.196-6.195 6.195 6.195 0 106.196 6.195h-2.696"/>
  <path fill="#869ed2" d="M291.133 480.021a3.5 3.5 0 01-3.5 3.498 3.496 3.496 0 01-3.494-3.498 3.496 3.496 0 116.994 0"/>
  <path fill="#231f20" d="M291.133 480.021h-2.697a.802.802 0 01-1.603 0 .806.806 0 01.8-.801c.442 0 .803.364.803.801H293.829a6.198 6.198 0 00-6.196-6.194 6.194 6.194 0 106.196 6.195h-2.696"/>
  <path fill="#a580c7" d="M173.563 158.387a42.45 42.45 0 018.588 25.674c0 23.563-19.1 42.664-42.663 42.664a42.505 42.505 0 01-16.93-3.498l-14.639 5.854 1.05-15.22c-7.51-7.69-12.144-18.2-12.144-29.8 0-23.561 19.1-42.664 42.663-42.664 11.775 0 22.433 4.771 30.152 12.483.316.317.628.637.936.963"/>
  <path fill="#231f20" d="M172.517 159.175a41.132 41.132 0 018.324 24.886c0 11.424-4.625 21.755-12.112 29.243-7.486 7.485-17.817 12.112-29.241 12.113a41.22 41.22 0 01-16.41-3.39 1.297 1.297 0 00-1.006-.015l-12.704 5.08.906-13.141a1.305 1.305 0 00-.37-1.004c-7.282-7.459-11.77-17.639-11.771-28.886 0-11.424 4.626-21.754 12.112-29.242 7.488-7.486 17.818-12.112 29.243-12.112 11.417 0 21.741 4.622 29.228 12.098l-.005-.004c.31.312.616.624.913.94a1.308 1.308 0 001.904-1.796 61.681 61.681 0 00-.959-.988l-.004-.004c-7.952-7.945-18.945-12.865-31.077-12.865-24.287.001-43.972 19.688-43.973 43.973-.001 11.951 4.779 22.794 12.517 30.715l.937-.915-1.306-.09-1.05 15.22a1.309 1.309 0 001.791 1.305l14.64-5.853-.486-1.216-.52 1.201a43.83 43.83 0 0017.45 3.607c24.287-.002 43.97-19.688 43.972-43.974 0-9.93-3.293-19.102-8.853-26.464a1.308 1.308 0 10-2.088 1.578"/>
  <path fill="#fcd7a1" d="M165.084 165.155a31.876 31.876 0 016.452 19.288c0 17.7-14.348 32.049-32.048 32.049-7.975 0-15.807-3.564-21.759-8.732a28.514 28.514 0 01-4.409-4.828c-3.87-5.37-5.883-11.879-5.883-18.49 0-17.7 14.35-32.05 32.051-32.05 8.843 0 16.852 3.584 22.65 9.377.237.238.474.478.7.723"/>
  <path fill="#231f20" d="M164.04 165.943a30.571 30.571 0 016.187 18.5c0 8.492-3.439 16.169-9.003 21.736-5.567 5.565-13.244 9.002-21.736 9.004-7.58.006-15.152-3.414-20.902-8.411a27.241 27.241 0 01-4.205-4.607c-3.701-5.134-5.636-11.377-5.635-17.722 0-8.495 3.439-16.171 9.004-21.739 5.567-5.564 13.244-9.003 21.738-9.003 8.485 0 16.159 3.435 21.724 8.994.233.234.459.462.665.685a1.309 1.309 0 001.923-1.777 27.064 27.064 0 00-.739-.76c-6.029-6.028-14.373-9.76-23.573-9.759-18.425 0-33.358 14.935-33.36 33.359.001 6.874 2.093 13.652 6.13 19.253a29.86 29.86 0 004.612 5.052c6.155 5.337 14.247 9.045 22.618 9.052 18.423-.001 33.356-14.935 33.357-33.357a33.201 33.201 0 00-6.717-20.078 1.308 1.308 0 10-2.087 1.579"/>
  <path fill="#231f20" d="M167.105 194.164c1.703-4.504 2.03-9.843.522-14.445-.628-1.916-3.662-1.096-3.03.834 1.351 4.123 1.002 8.75-.52 12.776-.717 1.898 2.319 2.711 3.028.835M113.876 172.483c-1.84 2.221-2.784 4.746-2.556 7.653.157 2.005 3.3 2.021 3.14 0-.159-2.048.315-3.836 1.637-5.432 1.282-1.548-.927-3.783-2.221-2.221"/>
  <path fill="#ef3160" d="M155.715 168.217c.33.227.652.475.96.738 2.662 2.294 4.338 5.929 4.216 10.284-.196 6.412-3.406 12.822-7.312 17.733-2.204 2.905-5.211 5.308-8.115 7.413-1.1.802-2.704 2.004-4.005 2.204 0 0-.483.13-1.18 0-1.912-.354-2.907-1.402-4.008-2.204-2.904-2.105-5.912-4.508-8.115-7.413-3.908-4.91-7.112-11.321-7.312-17.733-.302-10.519 9.918-16.831 19.132-10.219l.89.701.89-.701c4.157-2.98 8.517-3.336 12.024-1.861"/>
  <path fill="#231f20" d="M155.288 168.835c.31.213.61.444.897.69 2.395 2.066 3.956 5.308 3.959 9.267 0 .139-.003.283-.005.433l.752.014-.752-.023c-.182 6.173-3.31 12.47-7.15 17.288l-.01.013c-2.123 2.803-5.071 5.171-7.956 7.259-.555.405-1.215.892-1.876 1.295-.658.402-1.327.706-1.803.776l-.079.016.006.02-.004-.022-.002.002.006.02-.004-.022c-.036.008-.171.034-.374.032-.132 0-.297-.01-.481-.044l.004.002c-1.681-.314-2.517-1.2-3.703-2.074-2.885-2.089-5.835-4.457-7.958-7.26l-.01-.013c-3.84-4.817-6.964-11.115-7.15-17.29-.005-.146-.008-.29-.008-.43.001-3.477 1.212-6.403 3.134-8.463 1.923-2.06 4.552-3.256 7.456-3.257 2.338 0 4.864.776 7.36 2.567l.439-.611-.464.59.89.7a.751.751 0 00.93 0l.89-.7-.466-.59.439.61c2.494-1.789 5.024-2.566 7.362-2.566 1.39 0 2.714.275 3.931.787a.752.752 0 00.584-1.384 11.591 11.591 0 00-4.515-.907c-2.674 0-5.521.897-8.238 2.85l-.028.02-.426.334-.424-.335-.026-.02c-2.719-1.953-5.563-2.849-8.238-2.849-3.323-.001-6.365 1.385-8.555 3.736-2.193 2.35-3.539 5.66-3.538 9.488 0 .161.004.321.008.477.215 6.65 3.5 13.176 7.476 18.179l.588-.468-.599.453c2.284 3.008 5.35 5.447 8.272 7.568 1.016.73 2.171 1.939 4.312 2.335h.004c.278.05.531.07.748.07.432-.002.708-.07.758-.083l-.192-.726.113.743c.825-.133 1.61-.53 2.355-.977.74-.451 1.433-.966 1.98-1.363 2.922-2.12 5.986-4.559 8.269-7.567l-.597-.453.588.468c3.974-5.003 7.264-11.53 7.474-18.179v-.01c.003-.15.006-.303.006-.459.002-4.356-1.736-8.041-4.482-10.407-.33-.281-.672-.545-1.025-.788a.75.75 0 10-.85 1.239"/>
  <path fill="#231f20" d="M158.637 177.536c.083-1.43-.226-2.859-1.024-4.063-.64-.964-2.201-.061-1.557.911.637.961.844 2.01.777 3.152-.066 1.161 1.738 1.156 1.804 0M127.732 168.72c-1.516.19-2.597 1.163-3.185 2.55-.191.453-.14.962.323 1.234.383.224 1.042.13 1.234-.323.299-.704.784-1.552 1.628-1.657.487-.061.901-.364.901-.903 0-.445-.412-.962-.901-.901"/>
  <path fill="#f791a8" d="M66.496 350.83a35.901 35.901 0 00-7.26 21.703c0 19.92 16.147 36.066 36.066 36.066 5.086 0 9.923-1.058 14.312-2.956l12.374 4.948-.887-12.864c6.348-6.503 10.266-15.388 10.266-25.194 0-19.916-16.146-36.064-36.065-36.064-9.953 0-18.965 4.034-25.49 10.552-.267.266-.53.539-.79.815l-2.526 2.995"/>
  <path fill="#231f20" d="M65.613 350.164a37.01 37.01 0 00-7.483 22.37c0 20.53 16.64 37.17 37.172 37.171 5.24 0 10.228-1.09 14.75-3.046l-.438-1.016-.411 1.026 12.375 4.948a1.106 1.106 0 001.514-1.102l-.888-12.866-1.103.078.79.773c6.542-6.699 10.583-15.864 10.582-25.967 0-20.528-16.64-37.17-37.17-37.172-10.256 0-19.55 4.16-26.274 10.876-.276.278-.547.558-.812.839a1.107 1.107 0 101.61 1.52c.255-.272.511-.539.766-.793 6.329-6.32 15.058-10.227 24.71-10.228 9.656.001 18.39 3.912 24.718 10.24 6.328 6.329 10.239 15.062 10.24 24.718-.001 9.507-3.796 18.114-9.953 24.42a1.098 1.098 0 00-.312.85l.767 11.106-10.74-4.293a1.092 1.092 0 00-.849.012 34.845 34.845 0 01-13.872 2.864c-9.658 0-18.39-3.91-24.72-10.239-6.328-6.329-10.238-15.061-10.239-24.72a34.79 34.79 0 017.036-21.036 1.105 1.105 0 10-1.766-1.332"/>
  <path fill="#fff" d="M73.663 356.552a26.97 26.97 0 00-5.453 16.305c0 14.96 12.129 27.091 27.092 27.091 6.74 0 13.362-3.013 18.392-7.38a24.134 24.134 0 003.73-4.081c3.269-4.539 4.97-10.044 4.97-15.63 0-14.964-12.13-27.094-27.092-27.094a27.003 27.003 0 00-19.74 8.537l-1.899 2.252"/>
  <path fill="#231f20" d="M72.78 355.885a28.081 28.081 0 00-5.677 16.972c0 15.572 12.624 28.196 28.2 28.198 7.075-.007 13.915-3.142 19.116-7.652a25.21 25.21 0 003.901-4.268c3.412-4.739 5.178-10.468 5.18-16.278-.002-15.576-12.625-28.2-28.198-28.201a28.118 28.118 0 00-19.931 8.25l-.002.005c-.203.202-.409.413-.613.629a1.107 1.107 0 001.61 1.519c.183-.196.376-.392.572-.59l-.003.003c4.706-4.7 11.19-7.603 18.367-7.603 7.18 0 13.668 2.907 18.373 7.611 4.705 4.707 7.611 11.196 7.611 18.377 0 5.362-1.633 10.642-4.76 14.983a23.027 23.027 0 01-3.558 3.892c-4.859 4.224-11.26 7.116-17.666 7.11a25.899 25.899 0 01-18.375-7.613c-4.705-4.705-7.61-11.194-7.611-18.372a25.864 25.864 0 015.23-15.638 1.105 1.105 0 10-1.766-1.332M122.617 391.13c1.15-1.782 2.408-3.449 3.084-5.483.541-1.628-2.024-2.323-2.56-.706-.595 1.79-1.805 3.282-2.816 4.847-.932 1.444 1.368 2.773 2.292 1.341M66.404 377.417a20.484 20.484 0 01-.69-8.644c.224-1.693-2.434-1.672-2.655 0-.416 3.147-.124 6.311.785 9.351.488 1.636 3.051.939 2.56-.707"/>
  <path fill="#a1e0f2" d="M80.963 357.792c-.314.328-.615.67-.902 1.017-.449.548-.868 1.118-1.255 1.712a17.519 17.519 0 00-2.627 6.695c-.854 5.136-.854 11.472 1.583 16.19 2.057 3.98 5.67 7.51 9.83 9.222 2.328.957 5.176 1.57 7.701 1.57 8.69 0 17.34-6.373 19.006-15.091.48-2.5.739-5.318.612-8.107-.138-2.972-.716-5.907-1.938-8.383-2.017-4.081-5.648-7.721-9.865-9.486-2.354-.988-5.251-1.615-7.815-1.615-3.28 0-6.507.885-9.357 2.448a21.112 21.112 0 00-2.548 1.653l-2.425 2.175"/>
  <path fill="#231f20" d="M80.465 357.319a19.925 19.925 0 00-2.234 2.827 18.231 18.231 0 00-2.73 6.958 38.093 38.093 0 00-.527 6.193c.002 3.614.575 7.315 2.178 10.424 2.134 4.119 5.841 7.752 10.18 9.54 2.414.992 5.326 1.62 7.961 1.623 4.513-.001 8.985-1.65 12.558-4.42 3.57-2.77 6.252-6.681 7.122-11.23a36.66 36.66 0 00.656-6.807c0-.487-.011-.974-.032-1.458-.142-3.04-.73-6.062-2.009-8.656-2.093-4.225-5.82-7.97-10.215-9.816-2.444-1.022-5.405-1.665-8.08-1.668-3.404 0-6.741.918-9.687 2.532a21.7 21.7 0 00-2.632 1.708.687.687 0 00.828 1.096 19.712 19.712 0 012.464-1.601c2.755-1.51 5.87-2.363 9.027-2.363 2.452-.002 5.285.61 7.55 1.562 4.038 1.685 7.573 5.221 9.514 9.158 1.166 2.359 1.735 5.207 1.869 8.11.02.462.03.929.03 1.396a35.063 35.063 0 01-.63 6.55c-.797 4.172-3.274 7.807-6.617 10.403-3.342 2.593-7.54 4.133-11.716 4.13-2.415.003-5.199-.593-7.44-1.517-3.985-1.634-7.501-5.064-9.482-8.902-1.462-2.824-2.026-6.324-2.024-9.794 0-2.052.196-4.093.508-5.969.387-2.33 1.27-4.501 2.526-6.433a18.578 18.578 0 012.078-2.631.686.686 0 00-.993-.945h-.001"/>
  <path fill="#231f20" d="M106.495 359.245c.895.584 1.588 1.318 2.083 2.267.49.943 1.912.11 1.422-.83-.623-1.198-1.552-2.126-2.675-2.86-.891-.582-1.716.845-.83 1.423"/>
  <path fill="#89aedb" d="M95.278 393.51c-2.412 0-5.188-.594-7.424-1.517-.36-.148-.718-.31-1.07-.486 1.012.121 2.029.208 3.048.256.442.021.883.032 1.323.032 6.259 0 12.246-2.13 16.114-7.326 7.942-10.664 2.118-25.68-9.06-31.324a19.463 19.463 0 00-2.149-.925c2.262.108 4.75.69 6.782 1.543 4.04 1.685 7.574 5.221 9.515 9.158 1.166 2.359 1.735 5.207 1.869 8.11.02.462.03.929.03 1.396a35.063 35.063 0 01-.63 6.55c-.797 4.172-3.274 7.807-6.617 10.403-3.34 2.592-7.534 4.13-11.708 4.13h-.023m11.62-35.825c-.69 0-1.143 1.076-.403 1.56.895.584 1.588 1.318 2.083 2.267.153.293.395.415.642.415.548 0 1.118-.598.78-1.246-.623-1.197-1.552-2.125-2.675-2.858a.773.773 0 00-.426-.138"/>
  <path fill="#1d161a" d="M95.293 394.197c-2.525 0-5.373-.612-7.7-1.569a17.395 17.395 0 01-2.644-1.377c.61.096 1.222.182 1.835.256.352.176.71.338 1.07.486 2.236.923 5.012 1.518 7.424 1.518h.023c4.174 0 8.369-1.539 11.708-4.131 3.343-2.596 5.82-6.23 6.616-10.403.391-2.033.632-4.286.63-6.55 0-.467-.009-.934-.029-1.396-.134-2.903-.703-5.751-1.869-8.11-1.94-3.937-5.476-7.473-9.515-9.158-2.031-.854-4.52-1.435-6.782-1.543a20.016 20.016 0 00-2.175-.65c.467-.037.938-.054 1.408-.054 2.564 0 5.46.627 7.815 1.615 4.217 1.765 7.848 5.405 9.865 9.486 1.222 2.476 1.8 5.411 1.938 8.383.127 2.79-.131 5.607-.612 8.107-1.666 8.718-10.316 15.09-19.006 15.09"/>
  <path fill="#1d161a" d="M109.22 361.927c-.247 0-.49-.122-.642-.415-.495-.95-1.188-1.683-2.083-2.267-.74-.484-.286-1.56.404-1.56.135 0 .28.042.426.138 1.123.733 2.052 1.661 2.675 2.858.338.648-.232 1.246-.78 1.246"/>
  <path fill="#231f20" d="M108.66 376.133c-.005-1.836-1.247-3.613-3.183-3.76-2.156-.162-3.18 1.758-3.185 3.666-.003.798 1.235.798 1.237 0 .003-1.178.481-2.627 1.934-2.43 1.258.171 1.956 1.338 1.96 2.524.002.798 1.24.798 1.237 0M87.633 376.133c-.005-1.836-1.249-3.613-3.185-3.76-2.155-.162-3.18 1.758-3.186 3.666-.003.798 1.235.798 1.236 0 .005-1.179.484-2.627 1.936-2.43 1.259.171 1.958 1.338 1.962 2.524.002.798 1.24.798 1.237 0"/>
  <path fill="#f03481" d="M109.404 378.31c-.598-.64-1.632-.995-2.489-1.005a2.05 2.05 0 00-1.699.867 1.425 1.425 0 00-.646.51c-.614.831-.343 2.097.316 2.805.96 1.024 2.925 1.032 4.155.554.624-.241 1.037-.866 1.112-1.522.095-.86-.167-1.59-.75-2.21M85.595 378.31c-.599-.64-1.631-.995-2.49-1.005a2.055 2.055 0 00-1.7.867 1.45 1.45 0 00-.646.51c-.614.831-.344 2.097.32 2.805.956 1.024 2.924 1.032 4.152.554.625-.241 1.036-.866 1.111-1.522.097-.86-.167-1.59-.747-2.21"/>
  <path fill="#231f20" d="M84.353 380.424c5.833 5.699 17.684 6.743 22.629-.604.447-.664-.625-1.283-1.068-.625-4.494 6.676-15.468 5.452-20.686.354-.571-.557-1.447.316-.875.875M95.38 377.857c0-.848 1.03-.805 1.03.067 0 .533.826.533.826 0-.001-.816-.44-1.47-1.292-1.53-.824-.057-1.39.71-1.39 1.463.001.532.826.532.826 0"/>
  <path fill="#f791a8" d="M509.23 350.83a35.9 35.9 0 017.258 21.703c0 19.92-16.145 36.066-36.065 36.066a35.947 35.947 0 01-14.311-2.956l-12.375 4.948.888-12.864c-6.349-6.503-10.266-15.388-10.266-25.194 0-19.916 16.145-36.064 36.064-36.064 9.953 0 18.965 4.034 25.492 10.552.265.266.528.539.788.815"/>
  <path fill="#231f20" d="M508.345 351.497a34.785 34.785 0 017.036 21.036c0 9.659-3.91 18.391-10.238 24.72-6.33 6.328-15.062 10.239-24.72 10.239a34.848 34.848 0 01-13.872-2.864 1.092 1.092 0 00-.85-.012l-10.738 4.293.765-11.106a1.097 1.097 0 00-.312-.85c-6.156-6.306-9.95-14.913-9.952-24.42.001-9.656 3.91-18.389 10.239-24.718 6.329-6.328 15.062-10.239 24.72-10.24 9.652.001 18.38 3.908 24.709 10.229.255.253.51.52.765.79a1.107 1.107 0 101.61-1.517 36.93 36.93 0 00-.811-.838c-6.724-6.718-16.019-10.878-26.273-10.878-20.531.002-37.171 16.644-37.172 37.172 0 10.103 4.041 19.268 10.582 25.967l.792-.773-1.104-.078-.888 12.866a1.107 1.107 0 001.514 1.102l12.376-4.948-.411-1.026-.44 1.016a37.08 37.08 0 0014.75 3.046c20.531-.001 37.171-16.641 37.173-37.172a37.017 37.017 0 00-7.483-22.369 1.106 1.106 0 10-1.765 1.333"/>
  <path fill="#fff" d="M502.063 356.552a26.976 26.976 0 015.453 16.305c0 14.96-12.13 27.091-27.093 27.091-6.74 0-13.362-3.013-18.392-7.38a24.062 24.062 0 01-3.728-4.081c-3.271-4.539-4.971-10.044-4.971-15.63 0-14.964 12.13-27.094 27.09-27.094 7.48 0 14.247 3.029 19.15 7.928.199.2.399.402.592.609"/>
  <path fill="#231f20" d="M501.179 357.219a25.869 25.869 0 015.23 15.638c-.001 7.178-2.906 13.667-7.61 18.372-4.707 4.706-11.196 7.611-18.376 7.612-6.406.007-12.808-2.885-17.667-7.109a23.03 23.03 0 01-3.557-3.893c-3.127-4.34-4.762-9.62-4.76-14.982 0-7.181 2.905-13.67 7.61-18.377 4.706-4.704 11.195-7.61 18.374-7.61 7.176 0 13.661 2.902 18.366 7.602l-.002-.003c.196.198.388.394.572.588a1.106 1.106 0 101.61-1.516c-.205-.217-.41-.428-.613-.63l-.003-.004a28.116 28.116 0 00-19.93-8.251c-15.574.001-28.198 12.625-28.198 28.201 0 5.81 1.768 11.539 5.179 16.276a25.226 25.226 0 003.901 4.27c5.202 4.51 12.042 7.645 19.118 7.652 15.576-.002 28.198-12.626 28.198-28.198a28.075 28.075 0 00-5.676-16.972 1.106 1.106 0 10-1.765 1.334M455.4 389.788c-1.01-1.565-2.221-3.057-2.816-4.847-.536-1.617-3.101-.922-2.559.706.675 2.034 1.934 3.701 3.083 5.482.924 1.432 3.224.103 2.292-1.341M511.881 378.124c.908-3.04 1.202-6.204.786-9.35-.222-1.673-2.88-1.694-2.656 0 .388 2.931.157 5.81-.69 8.643-.49 1.646 2.072 2.343 2.56.707"/>
  <path fill="#a580c7" d="M398.21 173.585a52.3 52.3 0 00-10.573 31.612c0 29.008 23.515 52.524 52.524 52.524a52.334 52.334 0 0020.844-4.308l18.023 7.208-1.295-18.736c9.247-9.469 14.954-22.409 14.954-36.688 0-29.009-23.516-52.526-52.526-52.526-14.496 0-27.618 5.873-37.124 15.368-.388.389-.772.784-1.148 1.184"/>
  <path fill="#231f20" d="M396.923 172.615a53.92 53.92 0 00-10.898 32.582c.002 29.898 24.236 54.134 54.136 54.135a53.95 53.95 0 0021.484-4.44l-.64-1.479-.598 1.496 18.021 7.208a1.614 1.614 0 002.207-1.606l-1.295-18.738-1.607.112 1.152 1.126c9.528-9.755 15.414-23.102 15.412-37.814-.001-29.9-24.237-54.137-54.136-54.137-14.936-.001-28.47 6.055-38.262 15.839l-.003.001c-.396.399-.792.805-1.181 1.22a1.612 1.612 0 002.349 2.207c.363-.388.736-.771 1.115-1.151l-.003.001c9.219-9.205 21.93-14.894 35.985-14.896 14.064.002 26.783 5.698 36.002 14.914 9.216 9.218 14.91 21.937 14.912 36.002-.002 13.846-5.528 26.378-14.495 35.562-.323.329-.487.777-.455 1.237l1.118 16.176-15.639-6.255c-.4-.16-.845-.154-1.24.018a50.715 50.715 0 01-20.203 4.174c-14.065-.001-26.782-5.696-36.001-14.912-9.216-9.218-14.91-21.936-14.912-36 0-11.509 3.812-22.113 10.248-30.641a1.612 1.612 0 00-2.572-1.941"/>
  <path fill="#fcd7a1" d="M408.647 181.919a39.278 39.278 0 00-7.943 23.746c0 21.79 17.665 39.456 39.457 39.456 9.816 0 19.46-4.388 26.788-10.749a35.1 35.1 0 005.427-5.943c4.763-6.61 7.243-14.628 7.243-22.764 0-21.793-17.667-39.457-39.458-39.457-10.889 0-20.748 4.41-27.886 11.544-.294.292-.58.587-.864.888"/>
  <path fill="#231f20" d="M407.361 180.948a40.88 40.88 0 00-8.268 24.717c0 22.68 18.386 41.067 41.068 41.067 10.304-.008 20.267-4.572 27.844-11.144a36.57 36.57 0 005.678-6.217c4.969-6.899 7.546-15.243 7.546-23.706-.001-22.684-18.388-41.068-41.068-41.069-11.328-.001-21.601 4.593-29.025 12.016l.001-.001a41.9 41.9 0 00-.898.922 1.613 1.613 0 002.344 2.213c.272-.289.548-.573.829-.853l.001-.002c6.852-6.844 16.298-11.071 26.748-11.072 10.455.001 19.907 4.233 26.76 11.084 6.852 6.853 11.084 16.305 11.086 26.762 0 7.81-2.382 15.499-6.938 21.822a33.37 33.37 0 01-5.177 5.668c-7.079 6.152-16.403 10.364-25.73 10.356-10.457-.002-19.909-4.234-26.762-11.086-6.85-6.854-11.084-16.305-11.085-26.76a37.657 37.657 0 017.618-22.776 1.612 1.612 0 00-2.572-1.941M479.944 232.275c1.673-2.592 3.507-5.02 4.492-7.982.79-2.373-2.945-3.381-3.73-1.028-.866 2.606-2.629 4.778-4.1 7.058-1.357 2.102 1.991 4.038 3.338 1.952M398.076 212.308a29.784 29.784 0 01-1.005-12.59c.326-2.466-3.544-2.435-3.868 0-.607 4.585-.178 9.193 1.144 13.618.712 2.384 4.444 1.368 3.729-1.028"/>
  <path fill="#f791a8" d="M422.603 188.58a24.43 24.43 0 0117.558-7.413c13.531 0 24.499 10.968 24.499 24.497 0 13.53-10.968 24.499-24.499 24.499-13.529 0-24.498-10.968-24.498-24.499a24.39 24.39 0 015.074-14.93"/>
  <path fill="#231f20" d="M423.17 189.133c4.311-4.426 10.327-7.174 16.991-7.174 6.548 0 12.471 2.652 16.763 6.942 4.29 4.294 6.943 10.214 6.943 16.763 0 6.548-2.652 12.47-6.943 16.761a23.63 23.63 0 01-16.763 6.944 23.628 23.628 0 01-16.762-6.944 23.632 23.632 0 01-6.944-16.761 23.606 23.606 0 013.988-13.164l-.003.004c.152-.227.308-.45.465-.67.151-.207.303-.413.46-.618a.792.792 0 10-1.257-.964 30.95 30.95 0 00-.49.655c-.169.236-.334.474-.493.712l-.004.004a25.18 25.18 0 00-4.252 14.041c.002 13.968 11.324 25.29 25.292 25.29 13.968 0 25.291-11.322 25.291-25.29s-11.323-25.29-25.29-25.29a25.219 25.219 0 00-18.127 7.653.794.794 0 001.136 1.107"/>
  <path fill="#e9e9e9" d="M457.528 216.333a20.628 20.628 0 01-1.805 2.49c-3.74 4.416-9.323 7.218-15.562 7.218-11.253 0-20.378-9.122-20.378-20.377 0-11.255 9.125-20.379 20.378-20.379 11.255 0 20.378 9.124 20.378 20.379a20.418 20.418 0 01-1.067 6.528c-.19.559-.401 1.107-.636 1.641"/>
  <path fill="#231f20" d="M456.965 215.987c-.214.348-.438.689-.673 1.022-.192.271-.39.538-.596.8l.003-.001c-.158.2-.318.396-.479.587-3.621 4.276-9.021 6.986-15.059 6.986a19.656 19.656 0 01-13.944-5.774 19.66 19.66 0 01-5.776-13.943 19.66 19.66 0 015.776-13.944 19.662 19.662 0 0113.944-5.776 19.66 19.66 0 0113.943 5.776 19.66 19.66 0 015.776 13.944 19.788 19.788 0 01-1.033 6.316 19.06 19.06 0 01-.615 1.587.66.66 0 101.208.532 21.133 21.133 0 001.024-2.903c.479-1.765.733-3.62.733-5.532 0-11.619-9.418-21.037-21.036-21.037-11.618 0-21.038 9.418-21.038 21.037s9.42 21.036 21.038 21.036c6.439 0 12.206-2.895 16.064-7.452.174-.204.344-.415.511-.625l.001-.003a20.527 20.527 0 001.35-1.941.66.66 0 00-1.12-.692"/>
  <path fill="#231f20" d="M440.82 205.664v-14.988a.658.658 0 10-1.319 0v14.988a.66.66 0 001.319 0"/>
  <path fill="#231f20" d="M439.695 205.588l-6.806 6.807a.663.663 0 000 .933.663.663 0 00.934 0l6.805-6.807a.66.66 0 00-.933-.933"/>
  <path fill="#ef3369" d="M440.161 209.103a3.443 3.443 0 01-3.438-3.439 3.443 3.443 0 013.438-3.439 3.444 3.444 0 013.44 3.439 3.444 3.444 0 01-3.44 3.439"/>
  <path fill="#231f20" d="M440.161 201.565a4.103 4.103 0 00-4.098 4.099 4.104 4.104 0 004.098 4.099c2.26 0 4.099-1.84 4.099-4.099a4.103 4.103 0 00-4.099-4.099zm0 1.32a2.78 2.78 0 110 5.56 2.78 2.78 0 010-5.56M419.783 207.11h4.945a.658.658 0 100-1.317h-4.945a.659.659 0 100 1.318M460.539 205.793h-5.45a.658.658 0 100 1.318h5.45a.658.658 0 100-1.318M439.501 185.285v2.142a.66.66 0 001.319 0v-2.142a.658.658 0 10-1.319 0M440.82 226.041v-2.862a.658.658 0 10-1.319 0v2.862a.66.66 0 001.319 0M425.788 196.652c.319-.676.808-1.185 1.33-1.71.869-.869-.477-2.214-1.343-1.345-.628.628-1.247 1.284-1.631 2.096-.519 1.103 1.12 2.068 1.644.959M448.895 221.401c1.121-.457 1.964-1.162 2.684-2.13.309-.416.068-1.062-.342-1.302-.485-.284-.993-.073-1.302.342-.394.529-.93 1.004-1.546 1.256-.48.194-.814.625-.665 1.169.127.456.69.861 1.17.665"/>
  <path fill="#ef3160" d="M465.873 358.377a9.685 9.685 0 00-.876.675c-2.428 2.088-3.958 5.401-3.845 9.372.183 5.844 3.104 11.688 6.667 16.161 2.008 2.65 4.748 4.839 7.396 6.756 1.004.732 2.465 1.828 3.65 2.011 0 0 .439.117 1.076 0 1.743-.324 2.647-1.279 3.651-2.01 2.65-1.918 5.387-4.107 7.396-6.757 3.563-4.473 6.484-10.317 6.667-16.161.273-9.588-9.039-15.34-17.44-9.315l-.811.642-.812-.642c-3.787-2.716-7.76-3.038-10.955-1.694"/>
  <path fill="#231f20" d="M465.487 357.812a10.61 10.61 0 00-.938.721c-2.502 2.151-4.09 5.508-4.089 9.479 0 .137 0 .285.008.444l.684-.032-.684.021c.195 6.06 3.19 12.008 6.815 16.567l.536-.427-.546.415c2.08 2.741 4.872 4.964 7.54 6.896.498.361 1.128.83 1.803 1.241.679.408 1.393.771 2.145.891l.104-.676-.174.661c.044.012.294.074.688.074.2 0 .426-.018.678-.06l.008-.002c1.954-.361 3.004-1.464 3.931-2.13 2.665-1.931 5.456-4.154 7.537-6.895l-.545-.415.536.427c3.624-4.559 6.62-10.507 6.815-16.567.004-.148.005-.292.005-.433.001-3.49-1.225-6.508-3.224-8.65-1.997-2.143-4.77-3.407-7.8-3.405-2.436-.001-5.03.816-7.505 2.596l-.024.019-.388.305-.387-.305-.024-.019c-2.477-1.778-5.07-2.597-7.507-2.596-1.449 0-2.841.287-4.116.826a.687.687 0 00-.364.898c.148.348.55.511.899.364a9.175 9.175 0 013.581-.718c2.13.001 4.434.709 6.708 2.338l.399-.556-.424.538.81.64c.249.196.6.196.85 0l.81-.64-.423-.538.398.556c2.274-1.632 4.578-2.337 6.707-2.338 2.648.001 5.044 1.092 6.799 2.969 1.75 1.879 2.854 4.545 2.856 7.716 0 .132-.002.264-.004.393-.17 5.624-3.019 11.364-6.519 15.754l-.01.013c-1.937 2.555-4.622 4.712-7.251 6.613-1.084.799-1.843 1.607-3.375 1.892l.125.675-.117-.676c-.176.03-.328.043-.445.043-.123 0-.219-.011-.278-.02l-.061-.01-.005.023.006-.023h-.001l-.005.023.006-.023-.072-.014c-.433-.063-1.042-.34-1.641-.708-.604-.367-1.205-.811-1.71-1.18-2.631-1.903-5.318-4.06-7.254-6.615l-.01-.013c-3.5-4.39-6.349-10.13-6.518-15.756v-.011a8.683 8.683 0 01-.007-.38c.003-3.607 1.43-6.561 3.615-8.441.261-.226.532-.434.816-.628a.684.684 0 00-.772-1.131"/>
  <path fill="#231f20" d="M464.85 366.87c-.06-1.04.13-1.997.71-2.871.585-.888-.837-1.71-1.42-.831-.724 1.097-1.008 2.399-.933 3.701.061 1.054 1.705 1.06 1.644 0M491.376 360.48c.77.1 1.21.87 1.483 1.51.174.414.774.5 1.124.295.422-.248.469-.712.294-1.125-.537-1.267-1.52-2.144-2.901-2.323-.445-.057-.821.416-.821.822 0 .49.377.764.821.821"/>
</svg>