<svg xmlns="http://www.w3.org/2000/svg" viewBox="0 0 566.933 566.933">
  <path fill="#231f20" d="M476.856 373.956l-36.804-87.661c1.536-48.139-10.885-86.278-36.933-113.379a123.048 123.048 0 00-13.504-12.105h.002l-.114-.084a123.882 123.882 0 00-4.767-3.48 128.559 128.559 0 00-6.207-4.093l-.065-.038a132.759 132.759 0 00-5.25-3.05c-.398-.22-.795-.438-1.195-.654a136.213 136.213 0 00-5.56-2.863l-.087-.04a141.473 141.473 0 00-5.619-2.548c-.462-.201-.928-.398-1.396-.596a149.781 149.781 0 00-5.912-2.345l-.138-.048a156.31 156.31 0 00-5.958-2.05c-.526-.17-1.054-.338-1.585-.505a164.831 164.831 0 00-6.243-1.833l-.048-.015a154.805 154.805 0 00-3.32-.857c-1.662-4.444-3.674-8.664-6.049-12.604-13.57-22.501-34.156-37.13-57.968-41.19-5.801-.987-12.235-1.509-18.61-1.509h-.006c-5.845 0-11.504.419-16.819 1.247-8.753 1.363-16.981 3.739-24.568 6.988-15.345 6.573-28.045 16.757-36.998 29.608a82.216 82.216 0 00-1.719 2.573l-.055.083a78.98 78.98 0 00-1.582 2.59l-.084.138a79.537 79.537 0 00-2.539 4.728c-.156.313-.321.62-.473.933-.186.388-.356.784-.536 1.175-.27.585-.547 1.167-.803 1.759-.065.15-.123.305-.188.457a81.823 81.823 0 00-4.761 15.13c-.059.28-.103.56-.16.84a126.836 126.836 0 00-.747 3.91 127.718 127.718 0 00-.628 4.13c-.023.17-.055.34-.076.51a121.612 121.612 0 00-.876 9.247l-.003.032a116.546 116.546 0 00.315 17.482c-6.792 8.039-12.69 16.952-17.67 26.739-1.809.888-3.623 1.716-5.586 2.241-4.38 1.171-2.935 7.576 1.099 7.411a165.042 165.042 0 00-3.019 7.607 178.531 178.531 0 00-1.985 5.681c-.15.45-.304.893-.449 1.345-6.47 20.139-9.944 43.07-10.383 68.696-.516 30.198 4.502 57.283 14.913 80.504 5.261 11.728 11.887 22.476 19.797 32.131l.019.023.19.226a138.742 138.742 0 0015.435 15.958 140.916 140.916 0 0010.162 8.145c14.529 10.585 28.057 16.208 35.853 18.873v50.44c0 .304.016.604.045.9.451 4.436 4.198 7.9 8.754 7.9H361.06c4.859 0 8.8-3.94 8.8-8.8v-48.185h55.307c4.86 0 8.8-3.941 8.8-8.8V399.66l37.838-14.048a8.798 8.798 0 005.051-11.655M338.381 112.996c2.983-2.279 5.654-4.853 8.307-7.504 3.443-3.441-1.89-8.773-5.333-5.333-2.174 2.172-4.331 4.456-6.78 6.324-1.631 1.245-2.49 3.221-1.354 5.16.943 1.609 3.522 2.604 5.16 1.353M296.367 72.676c2.068-3.116 4.005-6.353 6.324-9.293 1.27-1.614 1.58-3.752 0-5.334-1.327-1.324-4.059-1.617-5.334 0-2.726 3.459-5.07 7.155-7.502 10.82-2.699 4.066 3.837 7.838 6.512 3.807M129.422 171.828c2.272.741 4.597 1.305 6.914 1.885 4.72 1.182 6.721-6.093 2.005-7.273-2.317-.579-4.644-1.143-6.914-1.885-1.954-.638-4.113.722-4.638 2.634-.565 2.052.68 4.002 2.633 4.639M155.547 112.996c1.638 1.252 4.216.256 5.16-1.353 1.136-1.939.277-3.914-1.352-5.16-2.448-1.87-4.607-4.151-6.779-6.324-3.443-3.443-8.775 1.89-5.333 5.333 2.65 2.65 5.321 5.224 8.304 7.504M197.561 72.676c2.676 4.03 9.21.259 6.514-3.807-2.434-3.666-4.776-7.362-7.504-10.82-1.276-1.616-4.008-1.325-5.334 0-1.581 1.582-1.272 3.722 0 5.334 2.32 2.94 4.258 6.176 6.324 9.293M249.213 61.972V48.145c0-4.862-7.541-4.862-7.541 0v13.827c0 4.864 7.541 4.864 7.541 0"/>
  <path fill="#d7bfe4" d="M336.172 135.717a.098.098 0 00-.019-.005c-1.662-4.444-3.674-8.664-6.049-12.604a75.832 75.832 0 016.068 12.61"/>
  <path fill="#231f20" d="M337.523 139.628a163.307 163.307 0 00-10.05-3.059 166.432 166.432 0 00-3.302-.857 75.878 75.878 0 00-6.067-12.604c-13.57-22.501-34.156-37.13-57.968-41.19-3.988-.678-8.275-1.137-12.635-1.358 1.979-.1 3.988-.15 6.019-.15 6.376 0 12.813.52 18.615 1.51 23.812 4.059 44.397 18.687 57.969 41.188 2.375 3.94 4.387 8.16 6.05 12.604a.098.098 0 01.018.005c.481 1.284.93 2.588 1.35 3.911"/>
  <path fill="#f9aeb8" d="M215.395 514.39a4.4 4.4 0 01-4.4-4.4v-53.635c-7.804-2.367-27.668-9.657-47.506-27.126-22.924-20.189-50.01-58.344-48.861-125.466.981-57.454 17.435-100.962 48.904-129.319 28.87-26.013 70.232-39.204 122.944-39.205.035-.002.365-.008.917-.008 6.286 0 62.499 1.142 100.554 40.734 25.366 26.392 37.366 63.782 35.676 111.144l37.176 88.55a4.4 4.4 0 01-2.525 5.828l-40.707 15.112v56.405c0 2.43-1.971 4.4-4.4 4.4H353.46v52.585a4.4 4.4 0 01-4.4 4.4H215.395"/>
  <path fill="#231f20" d="M287.393 130.83c-.477 0-.808.006-.978.009-53.818.018-96.142 13.59-125.828 40.338-32.412 29.206-49.355 73.79-50.359 132.511-.517 30.197 4.501 57.284 14.913 80.504 8.422 18.78 20.346 35.045 35.442 48.339 18.141 15.977 36.417 23.738 46.013 27.017v50.441a8.8 8.8 0 008.799 8.8H349.06c4.859 0 8.8-3.94 8.8-8.8v-48.185h55.307c4.86 0 8.8-3.941 8.8-8.8V399.66l37.837-14.048a8.797 8.797 0 005.01-4.75 8.796 8.796 0 00.042-6.905l-36.804-87.661c1.536-48.139-10.885-86.278-36.933-113.379-16.496-17.163-37.911-29.39-63.647-36.347-19.7-5.324-35.657-5.738-40.079-5.738m0 8.8c11.758 0 137.534 3.381 131.796 148.285l37.554 89.445-43.576 16.178v59.465H349.06v56.985H215.395v-56.985s-98.536-22.48-96.369-149.165c2.006-117.402 68.709-164.198 167.463-164.202h.026s.302-.006.878-.006"/>
  <path fill="#d591b0" d="M206.596 459.55c-7.753-2.652-21.173-8.226-35.61-18.698 14.437 10.472 27.857 16.046 35.61 18.696m-61.367-42.868c-8.04-9.747-14.764-20.613-20.088-32.487-10.412-23.221-15.43-50.306-14.914-80.504.466-27.24 4.362-51.437 11.64-72.468-7.278 21.031-11.174 45.227-11.639 72.467-.517 30.197 4.501 57.284 14.913 80.504 5.324 11.873 12.048 22.74 20.088 32.488"/>
  <path fill="#f57a8d" d="M269.263 509.99h-53.868v-56.986s-98.536-22.48-96.369-149.165c.796-46.606 11.791-82.088 30.937-107.93a109.628 109.628 0 005.658 18.908c-1.548 1.484-2.786 3.508-3.821 5.28-4.135 7.079-8.344 14.314-11.693 21.794-8.399 18.768-11.758 38.386-11.615 58.872.104 14.99 1.602 29.913 4.709 44.422a157.81 157.81 0 01-1.566-18.285c-.557-21.407 3.005-42.639 9.649-62.967 4.495-13.753 10.1-27.942 18.47-40.024 6.598 12.812 14.807 19.958 23.62 26.452-14.87 28.899-19.334 62.32-11.874 95.408 6.516 28.898 20.76 56.547 43.64 75.731 10.359 8.69 22.219 15.433 32.23 24.547 12.029 10.955 17.174 25.437 19.898 41.125 1.303 7.497 1.92 15.143 1.995 22.817m-46.624-49.232c.254 1.77.473 3.547.625 5.34.619 7.275.619 14.422-.267 21.67-.694 5.688-1.429 11.357-.461 16.962 3.283-1.36 6.501-1.749 10.359-1.968h.004c.044 0 .074.03.096.059.022.03.034.059.041.059.017 0-.003-.187-.007-1.027a48.706 48.706 0 00-.322-5.25c-.576-5.155-1.231-10.323-2.47-15.369-1.773-7.214-4.425-13.974-7.598-20.476"/>
  <path fill="#221512" d="M269.117 518.79h-53.722c-4.83 0-8.752-3.895-8.798-8.715l-.001-.086V459.548c-7.753-2.65-21.173-8.224-35.61-18.696a141.087 141.087 0 01-10.403-8.321 138.735 138.735 0 01-15.354-15.851c-8.04-9.748-14.764-20.615-20.088-32.488-10.412-23.22-15.43-50.307-14.913-80.504.465-27.24 4.36-51.436 11.639-72.467 6.274-18.128 15.058-33.902 26.329-47.245.376 4.023.965 8.004 1.767 11.933-19.146 25.842-30.14 61.324-30.937 107.93-2.167 126.685 96.369 149.165 96.369 149.165v56.985h53.868c.028 2.93-.023 5.867-.146 8.8M340.067 140.517a146.315 146.315 0 010 0M337.523 139.628a164.279 164.279 0 00-13.352-3.915v-.001c1.088.27 2.189.556 3.302.857 3.428.926 6.778 1.946 10.05 3.059"/>
  <path fill="#f57a8d" d="M329.457 160.019a94.558 94.558 0 00-2.269-14.398c10.188 2.9 21.333 7.2 32.243 13.566-3.023-.131-6.046-.196-9.067-.196-3.24 0-6.479.074-9.708.22-3.733.168-7.47.437-11.199.808"/>
  <path fill="#221512" d="M377.617 160.81a197.788 197.788 0 00-18.186-1.623c-10.91-6.366-22.055-10.666-32.243-13.566a84.375 84.375 0 00-3.017-9.908 164.279 164.279 0 0116.01 4.845l.067.025c.01.002.021.006.03.01 13.95 5.035 26.433 11.798 37.34 20.218"/>
  <path fill="#fcd5d8" d="M133.2 345.185c-3.106-14.509-4.604-29.432-4.708-44.422-.143-20.486 3.216-40.104 11.615-58.872 3.349-7.48 7.558-14.715 11.693-21.794 1.035-1.772 2.273-3.796 3.821-5.28a109.572 109.572 0 004.134 9.092c-8.371 12.082-13.976 26.271-18.471 40.024-6.644 20.328-10.206 41.56-9.649 62.967.163 6.15.698 12.25 1.566 18.285M222.536 504.73c-.968-5.606-.233-11.275.461-16.962.886-7.25.886-14.396.267-21.67a91.996 91.996 0 00-.625-5.34c3.173 6.5 5.825 13.26 7.598 20.475 1.239 5.046 1.894 10.214 2.47 15.368.197 1.747.314 3.495.322 5.251.004.84.024 1.027.007 1.027-.007 0-.019-.03-.041-.06-.022-.028-.052-.058-.096-.058h-.004c-3.858.22-7.076.607-10.359 1.968"/>
  <path fill="#231f20" d="M174.065 413.35c-9.653-5.123-17.978-14.365-21.524-24.771-1.557-4.578-8.844-2.612-7.27 2.005 4.164 12.228 13.576 23.221 24.986 29.279 4.295 2.278 8.104-4.231 3.808-6.512M174.79 196.019c4.163-6.472 8.962-12.228 15.617-16.246 4.156-2.51.366-9.032-3.808-6.513-7.763 4.688-13.46 11.396-18.323 18.95-2.64 4.105 3.89 7.882 6.513 3.809"/>
  <path fill="#f8e042" d="M212.1 293.813l.007-5.833c.052-11.916.084-19.11-8.951-26.755-4.425-3.726-8.741-6.806-12.913-9.785-10.567-7.541-20.547-14.664-28.094-29.756-11.101-22.207-14.102-47.524-8.678-73.215 7.072-33.509 34.552-57.92 71.716-63.708 5.156-.802 10.653-1.209 16.341-1.209 6.199 0 12.45.507 18.077 1.464 22.899 3.904 42.718 18.008 55.808 39.716 18.948 31.421 11.027 71.865-1.513 96.952-7.547 15.09-17.525 22.213-28.09 29.753-4.173 2.979-8.49 6.06-12.922 9.794-9.028 7.638-8.997 14.832-8.945 26.746l.006 5.836H212.1"/>
  <path fill="#231f20" d="M241.525 80.41c-5.846 0-11.506.42-16.824 1.247-38.485 5.992-66.956 31.344-74.306 66.162-5.572 26.394-2.479 52.422 8.944 75.269 7.897 15.792 18.185 23.136 29.078 30.91 4.122 2.942 8.386 5.986 12.722 9.637 7.902 6.688 7.876 12.954 7.826 24.333-.004.883-.008 1.784-.008 2.704v6.285H267.092v-6.285c0-.921-.004-1.824-.008-2.708-.05-11.376-.076-17.641 7.839-24.339 4.325-3.642 8.59-6.686 12.713-9.63 10.89-7.774 21.179-15.118 29.075-30.906 7.6-15.204 12.205-32.805 12.969-49.562.865-18.991-3.139-36.426-11.576-50.419-13.57-22.501-34.156-37.13-57.968-41.19-5.801-.987-12.235-1.509-18.61-1.509m0 6.284c5.993 0 12.005.476 17.553 1.422 23.229 3.961 41.641 18.338 53.642 38.24 16.708 27.705 12.318 66.018-1.633 93.924-10.057 20.112-24.304 25.14-40.225 38.548-10.894 9.218-10.056 18.434-10.056 31.845h-45.564c0-13.41.837-22.627-10.056-31.845-15.924-13.408-30.168-18.436-40.226-38.548-11.198-22.399-13.552-46.831-8.417-71.162 7.19-34.057 35.352-55.99 69.125-61.25 5.031-.784 10.435-1.174 15.856-1.174"/>
  <path fill="#1d1908" d="M150.137 149.07c0-.002 0-.003.002-.005l-.002.006m.004-.023c.083-.408.167-.817.254-1.227a81.58 81.58 0 000 0c-.087.41-.171.819-.254 1.227"/>
  <path fill="#44b2ad" d="M238.735 358.13c-19.058 0-34.56-12.263-34.56-27.338 0-15.076 15.502-27.34 34.56-27.34 19.056 0 34.558 12.264 34.558 27.34 0 15.075-15.502 27.339-34.558 27.339"/>
  <path fill="#231f20" d="M238.735 300.308c-20.79 0-37.704 13.675-37.704 30.484 0 16.807 16.914 30.481 37.704 30.481 20.789 0 37.701-13.674 37.701-30.481 0-16.81-16.912-30.484-37.701-30.484m0 6.285c17.35 0 31.416 10.835 31.416 24.199 0 13.361-14.066 24.196-31.416 24.196-17.352 0-31.419-10.835-31.419-24.196 0-13.364 14.067-24.199 31.419-24.199"/>
  <path fill="#44b2ad" d="M207.316 298.15a2.972 2.972 0 01-2.972-2.973v-12.256a2.972 2.972 0 012.972-2.972h62.835a2.972 2.972 0 012.973 2.972v12.256a2.972 2.972 0 01-2.973 2.972h-62.835"/>
  <path fill="#231f20" d="M270.15 276.976h-62.834a5.947 5.947 0 00-5.947 5.945v12.256a5.946 5.946 0 005.947 5.946h62.835a5.945 5.945 0 005.945-5.946v-12.256a5.946 5.946 0 00-5.945-5.945m0 5.945v12.256h-62.835v-12.256h62.835"/>
  <path fill="#44b2ad" d="M207.316 313.548a2.972 2.972 0 01-2.972-2.972V298.32a2.972 2.972 0 012.972-2.972h62.835a2.972 2.972 0 012.973 2.972v12.256a2.972 2.972 0 01-2.973 2.972h-62.835"/>
  <path fill="#231f20" d="M270.15 292.375h-62.834a5.946 5.946 0 00-5.947 5.945v12.256a5.946 5.946 0 005.947 5.945h62.835a5.945 5.945 0 005.945-5.945V298.32a5.945 5.945 0 00-5.945-5.945m0 5.945v12.256h-62.835V298.32h62.835"/>
  <path fill="#44b2ad" d="M207.316 328.633a2.972 2.972 0 01-2.972-2.973v-12.256a2.972 2.972 0 012.972-2.973h62.835a2.973 2.973 0 012.973 2.973v12.256a2.973 2.973 0 01-2.973 2.973h-62.835"/>
  <path fill="#231f20" d="M270.15 307.459h-62.834a5.946 5.946 0 00-5.947 5.945v12.256a5.947 5.947 0 005.947 5.947h62.835a5.946 5.946 0 005.945-5.947v-12.256a5.945 5.945 0 00-5.945-5.945m0 5.945v12.256h-62.835v-12.256h62.835"/>
  <path fill="#4d868a" d="M238.735 361.273h.121-.121m.18 0h.001-.001m.045 0h.017-.017m.052-.001h.025-.025m.056 0h.03-.03m.059 0h.033-.033m.066-.001h.027-.027m.066 0h.021-.021m.06-.002h.022-.022m.14-.001h.002-.002m.061-.001h.001-.001m.052-.002h.01-.01m.06 0h.01-.01m.06-.001h.01-.01m.057-.001h.015-.015m.066-.002h.008-.008m.058-.001h.011-.01m.065-.001l.005-.002-.005.002m.058-.003h.007-.007m.124-.003h.003-.003M201.03 330.756l.002-.01v.002l-.001.008m.001-.021v-.034.034m0-.046v-.044.044m0-.049v-.04.04m0-.053v-.031.03m0-.046l.001-.037-.001.037m.001-.053v-.032.032m0-.051l.002-.025-.002.025m.002-.044v-.027.027m.001-.061v-.022.022m0-.046l.001-.016-.001.016m.001-.044v-.005.005m.002-.066v-.01.01m.001-.04v-.01.01"/>
  <path fill="#081215" d="M201.032 330.748v-.001-.015.016m0-.04v-.007-.012-.044-.005-.04-.013-.031-.016l.001-.037v-.016-.032-.019l.002-.025v-.019-.027l.001-.034v-.022-.024l.001-.016v-.028-.005l.002-.061v-.01l.001-.03v-.01c.033-1.254.161-2.49.377-3.704.002.004.002.01.003.015a24.664 24.664 0 00-.388 4.272"/>
  <path fill="#081215" d="M201.42 326.436l-.003-.015.02-.105.002.016-.019.104"/>
  <path fill="#4d868a" d="M276.096 298.32v-.068.068m0-.096l-.001-.036.001.036m-.001-.039v-.005.005m0-.025c-.002-.005-.002-.013-.002-.02a.1.1 0 00.002.02m-.003-.05a5.93 5.93 0 00-.205-1.36v-.002c.118.436.189.892.205 1.361"/>
  <path fill="#081215" d="M275.887 296.75a.644.644 0 000-.001M276.096 298.32a5.81 5.81 0 00-.236-1.57.533.533 0 01.013-.05 5.93 5.93 0 01.221 1.46v.028l.002.036v.096m-74.725-.013c.001-.558.08-1.096.224-1.607l.013.05a5.873 5.873 0 00-.237 1.557"/>
  <path fill="#4d868a" d="M276.096 313.404v-.068.068m0-.096l-.001-.036.001.036m-.001-.039v-.004.004m0-.029c-.002-.005-.002-.01-.002-.015 0 .004 0 .01.002.015m-.003-.047a5.875 5.875 0 010 0"/>
  <path fill="#081215" d="M275.927 311.99l-.01-.038.01.037"/>
  <path fill="#081215" d="M201.37 323.75v-10.346c0-.501.063-.988.18-1.452l.009.037c-.111.455-.188.924-.188 1.415v10.345m74.725-10.345c0-.49-.075-.96-.187-1.415l.008-.037.01.037a5.875 5.875 0 01.168 1.251v.032l.001.036v.096"/>
  <path fill="#231f20" className="jth-svg-fill" d="M227.708 278.725c0-7.944.093-12.301.187-15.709.094-3.407.19-5.91.19-10.037 0-2.904-.048-6.608-.173-12.018l-2.513.059h2.513c0-.737.001-1.815-.07-3.028-.114-1.825-.35-3.948-1.131-5.94-.399-.993-.947-1.981-1.812-2.824a5.726 5.726 0 00-3.442-1.607l-.022-.001-.035-.003a5.59 5.59 0 00-.448-.017 5.045 5.045 0 00-2.352.561c-1.072.559-1.8 1.474-2.212 2.379-.416.915-.575 1.848-.577 2.756.001.687.094 1.364.288 2.023.196.658.488 1.305.948 1.91l-.003-.004c.919 1.194 2.159 1.851 3.383 2.243 1.237.39 2.525.53 3.813.533a18.044 18.044 0 004.088-.48c1.303-.312 2.507-.74 3.57-1.374l.005-.003a11.223 11.223 0 003.164-2.863c1.254-1.665 2.017-3.576 2.477-5.53.459-1.96.621-3.983.621-5.962-.001-3.48-.505-6.842-.961-9.416-.513-2.818-1.607-5.974-3.236-8.501-1.665-2.548-3.97-4.581-6.596-5.988-2.627-1.407-5.584-2.195-8.596-2.196-1.596 0-3.208.224-4.777.703a2.515 2.515 0 001.469 4.809 11.28 11.28 0 013.308-.484c2.124-.001 4.296.567 6.221 1.6 1.927 1.03 3.596 2.519 4.759 4.303 1.128 1.702 2.125 4.474 2.497 6.634.436 2.442.887 5.544.884 8.536.003 2.266-.264 4.455-.893 6.195-.313.872-.71 1.63-1.19 2.268a6.166 6.166 0 01-1.751 1.588l.002-.001c-.418.257-1.216.577-2.133.789-.919.217-1.965.347-2.932.345-.893.003-1.719-.113-2.292-.298-.587-.183-.855-.418-.904-.496l-.003-.004a.978.978 0 01-.12-.276 2.239 2.239 0 01-.082-.603c-.007-.384.124-.7.156-.724l.004-.004-.171-.152.092.205.079-.053-.171-.152.092.205-.057-.126.028.137.029-.01-.057-.127.028.137.061-.004.061.003.194-2.507-.251 2.501c.152.019.21.044.296.095.14.081.413.355.677.935.402.853.692 2.256.819 3.644.135 1.393.137 2.765.136 3.721v.03l.001.027c.126 5.387.172 9.054.172 11.902 0 4.046-.093 6.456-.188 9.898-.094 3.44-.189 7.868-.189 15.848a2.515 2.515 0 105.028 0M254.787 278.725c0-7.985-.095-12.414-.19-15.856-.096-3.444-.189-5.853-.189-9.908 0-2.846.045-6.508.173-11.882v-.059c0-.73 0-1.696.062-2.736.082-1.552.337-3.28.784-4.37.214-.55.465-.913.637-1.074.187-.16.225-.18.447-.215l-.251-2.501.195 2.505.058-.001.06.004.052-.225-.141.178.09.047.051-.225-.141.178.105-.133-.124.116.019.017.105-.133-.124.116.002.003c.032.021.165.338.156.725.016.432-.176.885-.203.887l.003-.004c-.05.077-.318.313-.904.496-.575.185-1.402.301-2.295.298a13.094 13.094 0 01-2.933-.345c-.916-.212-1.714-.532-2.128-.788a6.166 6.166 0 01-1.751-1.588c-.721-.953-1.255-2.193-1.597-3.653-.343-1.455-.49-3.112-.488-4.812-.003-2.991.446-6.092.885-8.53.372-2.162 1.372-4.934 2.5-6.638 1.161-1.784 2.83-3.272 4.757-4.303 1.924-1.033 4.096-1.601 6.22-1.6 1.127 0 2.239.157 3.312.484a2.513 2.513 0 003.138-1.672 2.513 2.513 0 00-1.671-3.137 16.402 16.402 0 00-4.779-.703c-3.012.001-5.968.79-8.594 2.196-2.626 1.407-4.931 3.44-6.595 5.988-1.63 2.527-2.725 5.683-3.239 8.501-.458 2.574-.961 5.936-.962 9.414.002 2.64.284 5.357 1.19 7.896.455 1.266 1.074 2.489 1.91 3.598a11.223 11.223 0 003.164 2.863c1.066.637 2.269 1.065 3.573 1.377 1.301.307 2.695.479 4.088.48 1.29-.002 2.577-.144 3.815-.533 1.225-.392 2.465-1.05 3.384-2.243l.002-.004a5.878 5.878 0 00.94-1.905 7.18 7.18 0 00.286-2.02c-.008-1.203-.271-2.477-1.094-3.65a4.85 4.85 0 00-1.693-1.485 5.035 5.035 0 00-2.35-.561c-.15 0-.3.005-.449.017l-.03.003-.026.001a5.693 5.693 0 00-2.47.843c-1.264.801-2.046 1.952-2.571 3.092-.783 1.727-1.085 3.568-1.255 5.261-.161 1.687-.16 3.232-.16 4.203h2.515l-2.515-.06c-.126 5.4-.173 9.1-.173 12.001 0 4.136.096 6.64.19 10.047.095 3.41.189 7.768.189 15.717a2.516 2.516 0 005.029 0h-.001M169.601 206.259c-2.386-6.159-3.946-12.482-4.056-19.11-.078-4.857-7.621-4.865-7.541 0 .119 7.275 1.701 14.346 4.327 21.115 1.737 4.484 9.03 2.537 7.27-2.005M260.077 101.956c3.766 1.157 7.222 2.737 10.412 5.068 1.664 1.215 4.202.283 5.16-1.353 1.119-1.911.304-3.951-1.352-5.16-3.685-2.691-7.87-4.492-12.214-5.828-4.663-1.435-6.64 5.846-2.006 7.273M292.733 232.725c4.347-2.04 7.614-5.746 10.151-9.733 2.619-4.117-3.91-7.896-6.513-3.807-1.895 2.976-4.212 5.511-7.446 7.027-1.86.873-2.32 3.508-1.352 5.16 1.108 1.89 3.299 2.227 5.16 1.353M344.964 212.95c-2.347-.627-4.477-1.682-6.641-2.762-1.839-.919-4.071-.505-5.16 1.352-.986 1.685-.486 4.243 1.353 5.16 2.727 1.361 5.488 2.732 8.443 3.523 4.705 1.256 6.698-6.019 2.005-7.274M350.501 164.555c-2.272.742-4.596 1.306-6.913 1.885-4.716 1.181-2.715 8.455 2.005 7.273 2.318-.58 4.642-1.144 6.914-1.885 1.952-.637 3.197-2.587 2.633-4.639-.525-1.912-2.684-3.272-4.639-2.634M329.355 100.159c-2.174 2.172-4.331 4.456-6.78 6.324-1.631 1.245-2.49 3.221-1.354 5.16.943 1.609 3.522 2.604 5.16 1.353 2.983-2.279 5.654-4.853 8.307-7.504 3.443-3.441-1.89-8.773-5.333-5.333M285.357 58.05c-2.726 3.458-5.07 7.154-7.502 10.82-2.699 4.065 3.837 7.837 6.512 3.806 2.068-3.116 4.005-6.353 6.324-9.293 1.27-1.614 1.58-3.752 0-5.334-1.327-1.324-4.059-1.617-5.334 0M126.969 220.223c2.956-.79 5.718-2.162 8.444-3.523 1.838-.917 2.339-3.475 1.352-5.16-1.088-1.857-3.32-2.27-5.16-1.352-2.165 1.08-4.295 2.135-6.641 2.761-4.696 1.254-2.7 8.53 2.005 7.274M117.422 171.828c2.272.741 4.596 1.305 6.914 1.885 4.72 1.182 6.721-6.093 2.005-7.273-2.318-.579-4.643-1.143-6.914-1.885-1.954-.638-4.113.722-4.638 2.634-.565 2.052.68 4.002 2.633 4.639M135.243 105.492c2.65 2.65 5.321 5.224 8.304 7.504 1.638 1.252 4.216.256 5.16-1.353 1.136-1.939.277-3.914-1.352-5.16-2.448-1.87-4.607-4.151-6.779-6.324-3.443-3.443-8.775 1.89-5.333 5.333M179.237 63.383c2.32 2.94 4.258 6.176 6.324 9.293 2.676 4.03 9.21.259 6.514-3.807-2.434-3.666-4.776-7.362-7.504-10.82-1.276-1.616-4.008-1.325-5.334 0-1.581 1.582-1.272 3.722 0 5.334M237.213 61.972V48.145c0-4.862-7.541-4.862-7.541 0v13.827c0 4.864 7.541 4.864 7.541 0M238.856 361.273h.059-.059M238.916 361.273h.044-.044M238.977 361.273l.035-.001-.035.001M239.037 361.272h.031-.03M239.099 361.272h.028-.028M239.16 361.272l.033-.001-.033.001M239.22 361.27h.039-.039M239.28 361.27h.039-.039M239.341 361.27h.059-.059M239.4 361.27c.02-.002.039-.002.059-.002l-.059.001M239.461 361.268l.059-.001-.059.001M239.521 361.267c.016 0 .035 0 .051-.002-.017.002-.033.002-.05.002M239.583 361.265h.049-.05M239.643 361.265l.049-.001-.05.001M239.703 361.264l.046-.001-.046.001M239.764 361.263c.017-.002.033-.002.05-.002-.017 0-.033 0-.05.002M239.823 361.261l.05-.001-.05.001M239.884 361.26l.055-.001-.055.001M239.944 361.257l.053-.001-.053.001M240.004 361.256l.06-.001-.06.001M240.064 361.255l.057-.002-.057.002"/>
  <path fill="#f682a6" d="M276.436 330.792v-.044.044m0-.059v-.025.025"/>
  <path fill="#45aba6" d="M236.699 342.785c-7.307 0-14.504-1.48-20.444-5.488a39.573 39.573 0 01-6.684-5.69h60.562a18.855 18.855 0 01-.384 3.064 77.823 77.823 0 01-12.804 4.973c-6.182 1.79-13.265 3.141-20.246 3.141"/>
  <path fill="#231f20" d="M240.124 361.253c20.07-.59 36.183-13.929 36.305-30.276a81.371 81.371 0 01-6.68 3.694c.21-1.002.34-2.024.384-3.064h.018a5.947 5.947 0 005.896-5.175c.249 1.399.384 2.824.389 4.276V330.792c0 16.43-16.164 29.867-36.312 30.461"/>
  <path fill="#f682a6" d="M201.03 330.792v-.036.036"/>
  <path fill="#45aba6" d="M270.15 307.459h-62.834v-.951c4.168-1.556 8.596-2.575 12.77-3.516 6.93-1.567 13.935-2.307 20.958-2.307 5.364 0 10.737.431 16.096 1.256 4.517.695 8.856 1.626 13.01 2.818v2.7"/>
  <path fill="#231f20" d="M275.917 311.952a5.925 5.925 0 00-1.536-2.727h-.001l-.01-.01a.003.003 0 01-.002-.003l-.008-.008-.005-.005-.006-.006-.006-.006-.004-.003a5.922 5.922 0 00-3.996-1.723h-.002l-.094-.002h-.096v-2.7a88.004 88.004 0 015.945 1.933v3.884a5.8 5.8 0 01-.179 1.376m-74.368-.003a5.917 5.917 0 01-.178-1.373v-1.299c1.876-1.093 3.878-1.997 5.945-2.769v.95h-.096c-.03.002-.063.002-.095.003a5.949 5.949 0 00-5.576 4.488m-.178-13.629v-.013.013"/>
  <path fill="#45aba6" d="M270.15 292.373h-62.834v-2.914c.833-.3 1.672-.574 2.52-.814 5.17-1.457 10.277-1.717 15.612-2.098 5.976-.427 12.01-.89 18.025-.89 4.548 0 9.086.264 13.583 1.008.161.259.365.47.608.603 1.421.78 2.901 1.435 4.385 2.09.97.426 1.994.982 2.99.982.486 0 .966-.132 1.43-.477.274-.203.452-.548.55-.93 1.05.304 2.094.626 3.132.967v2.473"/>
  <path fill="#231f20" d="M275.873 296.7a5.95 5.95 0 00-5.722-4.327V289.9a91.287 91.287 0 015.945 2.183v3.094c0 .53-.09 1.034-.223 1.523m-74.278-.003a5.793 5.793 0 01-.224-1.52v-3.186c1.952-.924 3.928-1.804 5.945-2.532v2.914a5.928 5.928 0 00-4.204 1.743 5.93 5.93 0 00-1.517 2.581"/>
  <path fill="#231f20" d="M201.595 296.7v-.003a5.93 5.93 0 010 .003"/>
  <path fill="#f682a6" d="M267.464 276.975h-.001c.418-3.174 1.276-5.907 3.013-8.508-1.737 2.601-2.595 5.334-3.012 8.508m-58.877 0h-.002c-.521-3.959-1.724-7.234-4.466-10.419 2.744 3.187 3.946 6.459 4.468 10.419m61.889-8.51a.195.195 0 01.012-.017l-.012.017m.021-.03s0-.002.002-.002c-.002 0-.002.002-.002.002m-66.385-1.887l-.008-.01.008.01"/>
  <path fill="#f7d636" d="M246.35 276.975h-18.64c.011-6.85.098-10.81.185-13.959.094-3.407.19-5.91.19-10.037 0-2.9-.048-6.596-.173-11.994 0-.378 0-.844-.01-1.369.143-.03.285-.061.426-.095 1.303-.312 2.507-.74 3.57-1.374l.005-.003a11.223 11.223 0 003.164-2.863c1.254-1.665 2.017-3.576 2.477-5.53.459-1.96.621-3.983.621-5.962-.001-3.48-.505-6.842-.961-9.416-.513-2.818-1.607-5.974-3.236-8.501-1.665-2.548-3.97-4.581-6.596-5.988-2.627-1.407-5.584-2.195-8.596-2.196-1.596 0-3.208.224-4.777.703a2.515 2.515 0 001.469 4.809 11.28 11.28 0 013.308-.484h.01c2.12 0 4.289.568 6.211 1.6 1.927 1.03 3.596 2.519 4.759 4.303 1.128 1.702 2.125 4.474 2.497 6.634.436 2.442.887 5.544.884 8.536.003 2.266-.264 4.455-.893 6.195-.313.872-.71 1.63-1.19 2.268a6.166 6.166 0 01-1.751 1.588l.002-.001c-.378.233-1.066.516-1.874.725a14.72 14.72 0 00-.72-2.512c-.399-.993-.947-1.981-1.812-2.824a5.726 5.726 0 00-3.442-1.607l-.022-.001-.035-.003a5.59 5.59 0 00-.448-.017h-.017c-.815 0-1.632.19-2.335.561-1.072.559-1.8 1.474-2.212 2.379-.416.915-.575 1.848-.577 2.756.001.687.094 1.364.288 2.023.196.658.488 1.305.948 1.91l-.003-.004c.919 1.194 2.159 1.851 3.383 2.243.8.252 1.622.4 2.452.473.005.396.005.76.005 1.079v.03l.001.027c.126 5.387.172 9.054.172 11.902 0 4.046-.093 6.456-.188 9.898-.088 3.18-.174 7.204-.188 14.098h-7.765c-.73-6.715-2.975-12.431-9.73-18.148-15.923-13.408-30.167-18.436-40.225-38.548-11.164-22.331-13.537-46.683-8.464-70.939 2.447-4.125 5.134-8.079 8.116-11.8a75.235 75.235 0 00-4.094 13.093c-1.803 8.423-2.42 16.927-2.154 25.414 1.435-16.778 8.122-33.415 17.994-46.559a96.619 96.619 0 018.892-10.257 91.144 91.144 0 0112.741-6.575c-11.607 9.367-19.763 22.252-25.068 36.201-8.69 22.844-7.58 50.023 5.336 70.803-9.485-19.85-12.51-43.399-6.44-64.316 3.9-13.428 11.164-26.12 22.533-34.579 9.003-6.7 19.31-10.838 29.767-14.608a77.372 77.372 0 016.432-.269c9.524 0 19.008 1.793 27.904 5.717 24.099 10.632 43.465 34.534 43.247 61.742-.11 13.592-4.383 25.892-13.779 35.857-8.655 9.176-19.148 16.616-26.752 26.677.073-.186.137-.376.193-.565a7.18 7.18 0 00.286-2.02c-.008-1.203-.271-2.477-1.094-3.65a4.85 4.85 0 00-1.693-1.485 5.034 5.034 0 00-2.333-.561h-.018c-.149 0-.298.005-.448.017l-.03.003-.026.001a5.693 5.693 0 00-2.47.843c-1.264.801-2.046 1.952-2.571 3.092-.445.981-.735 2.001-.933 3.01-.808-.21-1.496-.494-1.872-.726a6.166 6.166 0 01-1.751-1.588c-.721-.953-1.255-2.193-1.597-3.653-.343-1.455-.49-3.112-.488-4.812-.003-2.991.446-6.092.885-8.53.372-2.162 1.372-4.934 2.5-6.638 1.161-1.784 2.83-3.272 4.757-4.303 1.922-1.032 4.091-1.6 6.211-1.6h.01c1.126 0 2.238.157 3.311.484a2.516 2.516 0 001.467-4.81 16.402 16.402 0 00-4.779-.702c-3.012.001-5.968.79-8.594 2.196-2.626 1.407-4.931 3.44-6.595 5.988-1.63 2.527-2.725 5.683-3.239 8.501-.458 2.574-.961 5.936-.962 9.414.002 2.64.284 5.357 1.19 7.896.455 1.266 1.074 2.489 1.91 3.598a11.223 11.223 0 003.164 2.863c1.066.637 2.269 1.065 3.573 1.377.141.034.284.066.427.095-.01.524-.01.988-.01 1.367-.126 5.388-.173 9.082-.173 11.978 0 3.076.053 5.25.12 7.564-1.508 5.371-2.521 10.87-3.15 16.45m-84.637-93.472c-1.885 0-3.749 1.214-3.709 3.646.119 7.275 1.701 14.346 4.327 21.115.686 1.772 2.241 2.54 3.761 2.54 2.327 0 4.575-1.797 3.51-4.545-2.387-6.159-3.947-12.482-4.057-19.11-.04-2.429-1.946-3.646-3.832-3.646m92.746 63.673c.026-1.759.066-3.767.122-6.097v-.059c0-.32 0-.683.006-1.079a11.52 11.52 0 002.452-.473c.869-.279 1.745-.69 2.509-1.332a52.919 52.919 0 00-2.236 3.564 79.227 79.227 0 00-2.853 5.476"/>
  <path fill="#231f20" d="M267.463 276.975c.681-5.175 2.53-9.18 7.458-13.351 4.327-3.641 8.59-6.685 12.714-9.63 3.209-2.29 6.366-4.543 9.425-6.986-3.059 2.443-6.216 4.696-9.425 6.987-4.124 2.944-8.387 5.988-12.714 9.629-1.892 1.603-3.33 3.18-4.422 4.81h-.002l-.009.014-.012.017v.002c-1.737 2.601-2.595 5.334-3.013 8.508m-52.547 0h-6.33c-.52-3.96-1.723-7.232-4.467-10.419a.035.035 0 00-.007-.008l-.008-.01a26.529 26.529 0 00-2.965-2.903c-4.338-3.652-8.602-6.696-12.724-9.64-10.891-7.772-21.18-15.116-29.074-30.906-11.245-22.488-14.42-48.052-9.204-74.018a124.634 124.634 0 00-2.232 17.416l.099-.238c2.503-5.829 5.292-11.514 8.493-16.909-5.073 24.256-2.7 48.608 8.464 70.939 10.058 20.112 24.302 25.14 40.226 38.548 6.754 5.717 8.998 11.433 9.729 18.148m-64.777-127.91l.002-.017-.002.017"/>
  <path fill="#ef7230" d="M297.06 247.008a.035.035 0 00.008-.007c-.003.003-.005.006-.008.007m.01-.008c2.635-2.104 5.197-4.35 7.657-6.883-2.459 2.532-5.022 4.779-7.658 6.883m29.756-52.495c1.568-6.984 2.539-14.054 2.855-20.978.21-4.603.133-9.115-.223-13.508.224 2.765.338 5.577.339 8.43 0 1.679-.039 3.374-.116 5.079-.316 6.924-1.287 13.993-2.855 20.977"/>
  <path fill="#1d1706" d="M324.17 135.712"/>
  <path fill="#d2a33d" d="M155.743 131.325l.008-.017-.008.017m.029-.066l.02-.044-.02.044M165.308 115.28l.004-.005-.004.005m34.117-26.342l.01-.006-.01.006m.011-.006c7.777-3.404 16.245-5.872 25.265-7.277 5.315-.828 10.974-1.247 16.819-1.247h.003c-5.847 0-11.506.42-16.822 1.248-9.02 1.404-17.488 3.872-25.265 7.276"/>
  <path fill="#1f0b02" d="M324.17 135.713v-.001.001"/>
  <path fill="#ea302f" d="M329.457 160.019a94.558 94.558 0 010 0"/>
  <path fill="#1f0b02" d="M327.188 145.621a84.728 84.728 0 00-3.017-9.909v.001a84.375 84.375 0 013.017 9.908"/>
  <path fill="#efb90c" d="M261.133 276.975h-6.348c-.012-6.899-.1-10.924-.188-14.106-.096-3.444-.189-5.853-.189-9.908 0-1.612.015-3.486.05-5.785a79.227 79.227 0 012.854-5.476 52.919 52.919 0 012.236-3.564c.313-.263.608-.564.875-.91l.002-.005c.324-.429.564-.88.747-1.34 7.604-10.061 18.097-17.501 26.752-26.677 9.396-9.965 13.67-22.265 13.779-35.857.218-27.208-19.148-51.11-43.247-61.742-8.896-3.924-18.38-5.717-27.904-5.717-2.144 0-4.29.09-6.432.27 2.599-.937 5.208-1.851 7.807-2.775-1.894-2.362-4.527-3.283-7.484-3.283-7.504 0-17.1 5.927-22.039 9.284a66.825 66.825 0 00-4.412 3.272 91.144 91.144 0 00-12.741 6.575 97.58 97.58 0 0114.366-11.867c-2.133-1.035-4.33-1.936-6.625-2.441a4.75 4.75 0 00-1.017-.11c-3.267 0-6.255 3.299-8.346 5.298-3.921 3.75-7.648 7.749-10.725 12.233-3.283 4.784-6.08 9.867-8.29 15.196-2.983 3.721-5.67 7.675-8.117 11.8l.047-.223c7.19-34.057 35.352-55.99 69.125-61.25 5.031-.784 10.435-1.174 15.856-1.174 5.994 0 12.006.476 17.554 1.422 23.229 3.961 41.641 18.338 53.642 38.24 16.708 27.705 12.318 66.018-1.633 93.924-10.057 20.112-24.304 25.14-40.225 38.548-6.755 5.717-9 11.433-9.73 18.148m38.334-59.55c-1.15 0-2.304.516-3.096 1.76-1.895 2.976-4.212 5.511-7.446 7.027-1.86.873-2.32 3.508-1.352 5.16.727 1.24 1.919 1.81 3.179 1.812a4.68 4.68 0 001.981-.459c4.347-2.04 7.614-5.746 10.151-9.733 1.823-2.865-.785-5.567-3.417-5.567m-10.419-109.62c-2.233 4.398-5.123 8.278-8.493 11.892 11.989 8.311 19.404 23.639 23.305 37.232 3.88 13.514 6.443 28.494 5.637 42.943 5.812-15.844 8.534-33.339 5.652-49.655-1.602-9.08-4.896-17.173-9.805-24.954-3.948-6.255-9.084-14.394-16.296-17.458m-28.143-13.309c-3.784 0-5.05 6.161-.828 7.46 3.766 1.157 7.222 2.737 10.412 5.068a2.96 2.96 0 001.767.553c1.347 0 2.739-.788 3.393-1.906 1.119-1.911.304-3.951-1.352-5.16-3.685-2.691-7.87-4.492-12.214-5.828a3.985 3.985 0 00-1.178-.187m-11.148 182.479h-3.406c.628-5.58 1.641-11.079 3.149-16.45.023.796.047 1.611.07 2.483.087 3.152.175 7.112.187 13.967"/>
  <path fill="#1d1706" d="M267.463 276.975h-6.33c.73-6.715 2.975-12.431 9.73-18.148 15.921-13.408 30.168-18.436 40.225-38.548 13.95-27.906 18.341-66.219 1.633-93.924-12.001-19.902-30.413-34.279-53.642-38.24-5.548-.946-11.56-1.422-17.554-1.422-5.421 0-10.825.39-15.856 1.174-33.773 5.26-61.936 27.193-69.125 61.25-.016.075-.03.148-.047.223-3.201 5.395-5.99 11.08-8.493 16.91l-.099.237c.33-5.766 1.062-11.58 2.232-17.416l.002-.006.002-.017c.083-.408.167-.817.254-1.227a81.58 81.58 0 015.348-16.496l.008-.017a.787.787 0 01.021-.05l.02-.043a79.984 79.984 0 019.4-15.781l.004-.006a3.507 3.507 0 01.112-.147l.004-.005c8.64-11.263 20.281-20.281 34.113-26.337l.01-.006h.001c7.777-3.404 16.245-5.872 25.265-7.276 5.316-.828 10.975-1.248 16.822-1.248 6.374 0 12.812.522 18.612 1.511 23.812 4.059 44.397 18.687 57.969 41.188a75.768 75.768 0 016.065 12.604h.002a84.728 84.728 0 013.017 9.91 94.584 94.584 0 012.27 14.397c.355 4.393.431 8.905.222 13.508-.316 6.924-1.287 13.994-2.855 20.978-2.226 9.916-5.656 19.663-10.117 28.584-3.561 7.124-7.61 12.528-11.981 17.028-2.46 2.532-5.022 4.779-7.658 6.883l-.001.001c-.003.003-.005.006-.008.007-3.059 2.443-6.216 4.696-9.425 6.987-4.124 2.944-8.387 5.988-12.714 9.629-4.928 4.17-6.777 8.176-7.458 13.35"/>
  <path fill="#f7d636" d="M222.321 234.777a4.39 4.39 0 01-.373-.102c-.587-.183-.855-.418-.904-.496l-.003-.004a.978.978 0 01-.12-.276 2.239 2.239 0 01-.082-.603 1.7 1.7 0 01.122-.668l.026.001c.129.018.184.044.265.091.14.081.413.355.677.935.146.31.278.693.392 1.122"/>
  <path fill="#45aba6" d="M270.15 325.66h-62.834v-4.779c3.572-1.282 7.37-2.064 10.687-2.681 10.068-1.87 20.282-3.348 30.538-3.348 1.643 0 3.286.037 4.931.119 5.696.277 11.281.996 16.679 2.192v8.497"/>
  <path fill="#231f20" d="M270.15 331.607h-60.58a41.24 41.24 0 01-6.38-8.926c1.31-.694 2.7-1.286 4.126-1.8v4.779h62.835v-8.497c2.009.444 3.992.956 5.945 1.533v6.964c0 .23-.041.45-.068.672l.019.1a5.947 5.947 0 01-5.896 5.175m-68.714-5.291c-.026-.217-.066-.43-.066-.656v-1.91c.273-.178.552-.35.834-.518a25.114 25.114 0 00-.768 3.084m.112-14.364v-.003a5.949 5.949 0 010 .003m72.832-2.727h-.001.001M274.36 309.204l-.005-.005.005.005m-.01-.01l-.007-.007.006.006m-67.224-1.732l.095-.002-.095.002m63.216 0l-.094-.002.094.002m-.146-.002h-62.922 62.922"/>
  <path fill="#54677a" d="M238.735 361.273c-20.791 0-37.704-13.674-37.704-30.481 0 16.807 16.914 30.481 37.704 30.481h.121-.121m-37.704-30.481v-.036l.001-.008-.001.044m.001-.06v-.024.024"/>
  <path fill="#1d8e7e" d="M238.735 354.988c-16.999 0-30.843-10.396-31.402-23.381h2.238a39.573 39.573 0 006.684 5.69c5.94 4.008 13.137 5.488 20.444 5.488 6.981 0 14.064-1.35 20.246-3.141a77.823 77.823 0 0012.804-4.973c-2.41 11.518-15.378 20.317-31.014 20.317m24.22-17.057c-1.948 0-3.988 2.07-5.452 3.16-2.263 1.682-4.822 3.217-7.555 3.942-.999.267-.843 2.798.221 2.798.031 0 .063-.003.095-.007 4.843-.653 12.067-2.296 13.85-7.577.263-.778.107-2.218-.933-2.307a2.577 2.577 0 00-.226-.01"/>
  <path fill="#081113" d="M238.735 361.273c-20.79 0-37.704-13.674-37.704-30.481l.001-.044v-.016-.024c.004-1.45.139-2.875.388-4.272a5.948 5.948 0 005.896 5.17h.017c.559 12.986 14.403 23.382 31.402 23.382 15.636 0 28.604-8.799 31.014-20.317a81.371 81.371 0 006.68-3.694c-.122 16.347-16.234 29.686-36.305 30.276h-.003l-.057.002-.06.001h-.007l-.053.001-.005.002-.055.001h-.01l-.051.001h-.008c-.018 0-.034 0-.051.002h-.015l-.046.001h-.011l-.05.001h-.07c-.016.002-.035.002-.05.002h-.002l-.059.001h-.002l-.059.001H239.319l-.039.002h-.087l-.033.001h-.148l-.035.001h-.242"/>
  <path fill="#081113" d="M209.57 331.607h-2.254a5.948 5.948 0 01-5.896-5.171l.019-.104-.002-.016c.191-1.045.448-2.075.768-3.084.323-.19.651-.373.986-.55a41.24 41.24 0 006.38 8.925"/>
  <path fill="#54677a" d="M276.096 282.921v-.066.066m0-.096l-.001-.036.001.036m-.001-.037v-.007.007m0-.025c-.002-.007-.002-.015-.002-.02a.1.1 0 00.002.02m-.003-.052a5.945 5.945 0 00-5.941-5.735h-2.688v-.001H270.15c3.212 0 5.83 2.549 5.941 5.736m-72.98-3.994a5.928 5.928 0 014.204-1.742h1.27v.001h-1.27a5.927 5.927 0 00-4.204 1.741"/>
  <path fill="#48964b" d="M246.35 276.976h-18.64v-.001h18.64v.001m-23.669 0h-7.765v-.001h7.765v.001"/>
  <path fill="#081113" d="M267.463 276.976v-.001.001m-52.547 0h-6.33v-.001h6.33v.001"/>
  <path fill="#4b8739" d="M261.133 276.976h-6.348v-.001h6.348v.001m-11.376 0h-3.406v-.001h3.406v.001"/>
  <path fill="#070f03" d="M261.133 276.976h6.33v-.002h-6.33z"/>
  <path fill="#1d8e7e" d="M270.15 289.9a90.432 90.432 0 00-3.131-.967 3.08 3.08 0 00.029-1.398 5.142 5.142 0 00-.303-1.058c-.418-1.012-1.412-1.682-2.38-2.096-1.894-.81-4.068-.802-6.065-1.201a1.62 1.62 0 00-.33-.035c-1.49 0-1.68 2.292-.914 3.52-4.497-.744-9.035-1.008-13.583-1.008-6.016 0-12.049.463-18.025.89-5.335.381-10.443.641-15.612 2.098-.848.24-1.687.514-2.52.814v-6.538h62.835v6.979"/>
  <path fill="#081113" d="M276.096 292.083a91.287 91.287 0 00-5.945-2.183v-6.979h-62.835v6.538c-2.017.728-3.993 1.608-5.945 2.532v-9.07c0-1.641.665-3.128 1.741-4.204a5.927 5.927 0 014.204-1.741H222.681l-.001 1.75a2.515 2.515 0 105.028 0l.001-1.75h22.048c.002.564.002 1.147.002 1.75a2.516 2.516 0 005.029 0h-.001c0-.603 0-1.186-.002-1.75H270.151a5.945 5.945 0 015.942 5.767c0 .005 0 .013.002.02v.026l.001.036V292.083"/>
  <path fill="#1d8e7e" d="M207.316 292.375h62.834v-.002h-62.834z"/>
  <path fill="#081113" d="M275.873 296.7a5.948 5.948 0 00-5.722-4.325v-.002a5.95 5.95 0 015.722 4.327m-72.761-2.584a5.928 5.928 0 014.204-1.743v.002a5.927 5.927 0 00-4.204 1.741"/>
  <path fill="#1d8e7e" d="M207.316 306.508v-8.188h62.835v6.439c-4.155-1.192-8.494-2.123-13.011-2.818a105.695 105.695 0 00-16.096-1.256c-7.023 0-14.028.74-20.959 2.307-4.173.941-8.601 1.96-12.769 3.516m10.46-7.643c-2.385 0-5.16 1.426-7.05 2.17-1.063.418-.989 3.237.217 3.237a.833.833 0 00.149-.015c1.692-.304 3.392-.549 5.079-.87 1.592-.303 3.132-.434 4.296-1.672.465-.496.51-1.535-.048-1.992-.759-.62-1.668-.858-2.643-.858"/>
  <path fill="#081113" d="M201.37 309.277V298.32v-.013c.003-.544.1-1.06.238-1.558-.004-.017-.01-.033-.013-.049a5.94 5.94 0 011.517-2.584 5.927 5.927 0 014.204-1.741h62.835a5.948 5.948 0 015.722 4.325.533.533 0 00-.013.05 5.81 5.81 0 01.236 1.57v8.372a88.004 88.004 0 00-5.945-1.933v-6.439h-62.835v8.188c-2.067.772-4.07 1.676-5.945 2.77M274.38 309.225l-.01-.01.01.01m-.012-.013l-.008-.008.008.008m-.013-.013l-.006-.006.006.006m-.012-.012l-.004-.003.004.003m-4-1.726h-.002.002M270.247 307.46h-.052.052m-63.027 0h.053-.053"/>
  <path fill="#1d8e7e" d="M207.316 320.881v-7.477h62.835v3.759c-5.398-1.196-10.983-1.915-16.679-2.192a99.818 99.818 0 00-4.93-.119c-10.257 0-20.471 1.479-30.54 3.348-3.317.617-7.114 1.399-10.686 2.681"/>
  <path fill="#081113" d="M201.37 323.75v-10.346c0-.49.078-.96.189-1.415l-.01-.037a5.95 5.95 0 015.576-4.49l.095-.003H270.247l.094.002h.002a5.922 5.922 0 014 1.726l.006.006.006.006.005.005.008.008c0 .001.001.003.003.003.002.004.006.006.009.01h.001a5.925 5.925 0 011.536 2.727l-.008.037c.112.455.187.924.187 1.415v5.292a87.843 87.843 0 00-5.945-1.533v-3.759h-62.835v7.477a31.803 31.803 0 00-4.125 1.8 39.577 39.577 0 01-.472-.916c-.186.484-.358.974-.514 1.467-.282.168-.561.34-.834.517"/>
  <path fill="#020e0a" d="M202.205 323.232c.156-.493.328-.983.514-1.467.153.308.31.612.472.916-.335.178-.663.36-.986.551"/>
  <path fill="#231f20" d="M225.193 281.24a2.515 2.515 0 01-2.513-2.515l.001-1.749v-.001c.014-6.894.1-10.918.188-14.098.095-3.442.188-5.852.188-9.898 0-2.848-.046-6.515-.172-11.902l-.001-.028v-.029c0-.319 0-.683-.005-1.079a11.52 11.52 0 01-2.452-.473c-1.224-.392-2.464-1.05-3.383-2.243l.003.004a5.873 5.873 0 01-.948-1.91 7.207 7.207 0 01-.288-2.023c.002-.908.161-1.841.577-2.756.412-.905 1.14-1.82 2.212-2.379a5.044 5.044 0 012.335-.561h.017c.15 0 .299.005.448.017l.035.003.022.001c1.351.124 2.59.763 3.442 1.607.865.843 1.413 1.83 1.812 2.824.324.825.553 1.673.72 2.512.808-.21 1.496-.492 1.874-.725l-.002.001a6.166 6.166 0 001.75-1.588c.48-.637.878-1.396 1.191-2.268.63-1.74.896-3.93.893-6.195.003-2.992-.448-6.094-.884-8.536-.372-2.16-1.369-4.932-2.497-6.634-1.163-1.784-2.832-3.272-4.759-4.303-1.922-1.032-4.092-1.6-6.212-1.6h-.009a11.28 11.28 0 00-3.308.484 2.516 2.516 0 01-1.47-4.81 16.367 16.367 0 014.778-.702c3.012.001 5.97.79 8.596 2.196 2.625 1.407 4.93 3.44 6.596 5.988 1.63 2.527 2.723 5.683 3.236 8.501.456 2.574.96 5.936.961 9.416 0 1.979-.162 4.002-.621 5.962-.46 1.954-1.223 3.865-2.477 5.53a11.223 11.223 0 01-3.164 2.863l-.004.003c-1.064.634-2.268 1.062-3.571 1.374a21.88 21.88 0 01-.425.095c.009.525.009.99.009 1.37.125 5.397.173 9.093.173 11.993 0 4.128-.096 6.63-.19 10.037-.087 3.15-.174 7.11-.186 13.959v.001l-.001 1.75a2.516 2.516 0 01-2.515 2.514m-4.232-48.612a1.7 1.7 0 00-.122.668c0 .213.033.436.082.603.05.168.115.273.12.276l.003.004c.05.078.317.313.904.496.115.037.24.072.373.102a6.909 6.909 0 00-.392-1.122c-.264-.58-.537-.854-.677-.935a.608.608 0 00-.265-.09l-.026-.002"/>
  <path fill="#f7d636" d="M255.143 234.777c.084-.316.178-.608.284-.864.214-.549.465-.912.637-1.073.18-.155.223-.179.425-.212h.012c.051.11.128.37.122.668.016.43-.174.88-.203.887l.003-.004-.003.004c-.056.081-.325.312-.901.492a4.46 4.46 0 01-.376.102"/>
  <path fill="#231f20" d="M252.273 281.24a2.516 2.516 0 01-2.514-2.515c0-.602 0-1.185-.002-1.749v-.001c-.012-6.855-.1-10.815-.186-13.967l-.071-2.483c-.067-2.314-.12-4.488-.12-7.564 0-2.896.047-6.59.173-11.978 0-.379 0-.843.01-1.367-.143-.03-.286-.061-.427-.095-1.304-.312-2.507-.74-3.573-1.377a11.223 11.223 0 01-3.164-2.863c-.836-1.109-1.455-2.332-1.91-3.598-.906-2.539-1.188-5.256-1.19-7.896.001-3.478.504-6.84.962-9.414.514-2.818 1.608-5.974 3.239-8.501 1.664-2.548 3.97-4.581 6.595-5.988 2.626-1.407 5.582-2.195 8.594-2.196 1.595 0 3.206.224 4.779.703a2.516 2.516 0 01-1.467 4.81 11.346 11.346 0 00-3.312-.485h-.009c-2.12 0-4.29.568-6.21 1.6-1.927 1.03-3.597 2.519-4.758 4.303-1.128 1.704-2.128 4.476-2.5 6.638-.439 2.438-.888 5.539-.885 8.53-.002 1.7.145 3.357.488 4.812.342 1.46.876 2.7 1.597 3.653a6.166 6.166 0 001.75 1.588c.377.232 1.065.516 1.873.725.198-1.008.488-2.028.933-3.009.525-1.14 1.307-2.29 2.57-3.092a5.693 5.693 0 012.471-.843l.026-.001.03-.003a5.59 5.59 0 01.448-.017h.018c.814 0 1.632.19 2.333.561a4.85 4.85 0 011.693 1.486c.823 1.172 1.086 2.446 1.094 3.649a7.18 7.18 0 01-.286 2.02c-.056.19-.12.379-.193.565-.183.46-.423.911-.747 1.34l-.002.004a5.802 5.802 0 01-.875.911c-.764.643-1.64 1.053-2.51 1.332-.8.252-1.622.4-2.451.473-.006.396-.006.759-.006 1.079v.059c-.056 2.33-.096 4.338-.122 6.097-.036 2.299-.051 4.173-.051 5.785 0 4.055.093 6.464.19 9.908.087 3.182.175 7.207.187 14.106v.001c.002.564.002 1.147.002 1.75h.001a2.516 2.516 0 01-2.515 2.514M256.49 232.628c-.202.033-.245.057-.425.212-.172.161-.423.524-.637 1.073-.106.256-.2.548-.284.864.134-.03.26-.065.376-.102.576-.18.845-.411.901-.492.03-.007.219-.458.203-.887a1.662 1.662 0 00-.122-.668h-.012m-.069 1.555l.003-.004-.003.004"/>
  <path fill="#fae7ad" d="M309.497 199.872c.806-14.45-1.757-29.43-5.637-42.943-3.901-13.593-11.316-28.921-23.305-37.232 3.37-3.614 6.26-7.494 8.493-11.892 7.212 3.064 12.348 11.203 16.296 17.458 4.91 7.781 8.203 15.874 9.805 24.954 2.882 16.316.16 33.811-5.652 49.655"/>
  <path fill="#fcf2bf" d="M158.365 176.047c-.266-8.487.351-16.991 2.154-25.414a75.235 75.235 0 014.094-13.093c4.544-5.668 9.775-10.796 15.887-15.15a88.952 88.952 0 014.75-3.16 96.619 96.619 0 00-8.891 10.258c-9.872 13.144-16.559 29.781-17.994 46.559"/>
  <path fill="#fae7ad" d="M164.613 137.54c2.211-5.33 5.008-10.412 8.291-15.196 3.077-4.484 6.804-8.483 10.725-12.233 2.091-1.999 5.079-5.298 8.346-5.298.336 0 .676.035 1.017.11 2.295.505 4.492 1.406 6.625 2.441a97.58 97.58 0 00-14.366 11.867 88.952 88.952 0 00-4.751 3.16c-6.112 4.353-11.343 9.481-15.887 15.149"/>
  <path fill="#fcf2bf" d="M178.26 219.66c-12.916-20.78-14.025-47.959-5.336-70.803 5.305-13.949 13.461-26.834 25.068-36.201 8.325-3.496 17.188-5.756 26.128-6.499-10.457 3.77-20.764 7.908-29.767 14.608-11.369 8.459-18.633 21.151-22.533 34.579-6.07 20.917-3.045 44.467 6.44 64.316"/>
  <path fill="#fae7ad" d="M197.992 112.656a66.825 66.825 0 014.412-3.272c4.939-3.357 14.535-9.284 22.039-9.284 2.957 0 5.59.921 7.484 3.283-2.599.924-5.208 1.838-7.807 2.774-8.94.743-17.803 3.003-26.128 6.499"/>
  <path fill="#b7d5ca" d="M250.17 347.83c-1.065 0-1.22-2.53-.222-2.797 2.733-.725 5.292-2.26 7.555-3.942 1.464-1.09 3.504-3.16 5.452-3.16.076 0 .15.002.226.009 1.04.09 1.196 1.53.934 2.307-1.784 5.281-9.008 6.924-13.851 7.577a.771.771 0 01-.095.007M210.943 304.272c-1.206 0-1.28-2.819-.216-3.237 1.889-.744 4.664-2.17 7.049-2.17.975 0 1.884.238 2.643.858.558.457.513 1.496.048 1.992-1.164 1.238-2.704 1.369-4.296 1.672-1.687.321-3.387.566-5.079.87a.833.833 0 01-.15.015"/>
  <path fill="#c6e3de" d="M265.039 290.34c-.996 0-2.02-.556-2.99-.983-1.484-.654-2.964-1.309-4.385-2.089a1.696 1.696 0 01-.608-.603l.552.094a89.658 89.658 0 019.41 2.174c-.097.382-.275.727-.549.93a2.324 2.324 0 01-1.43.477"/>
  <path fill="#b7d5ca" d="M267.019 288.933a89.658 89.658 0 00-9.411-2.174l-.552-.094c-.767-1.228-.576-3.52.915-3.52.104 0 .213.011.329.035 1.997.399 4.17.39 6.065 1.201.968.414 1.962 1.084 2.38 2.096.128.311.24.69.303 1.058a3.08 3.08 0 01-.03 1.398"/>
  <path fill="#231f20" d="M166.092 210.804c-1.52 0-3.075-.768-3.761-2.54-2.626-6.77-4.208-13.84-4.327-21.115-.04-2.432 1.824-3.646 3.71-3.646 1.885 0 3.791 1.217 3.831 3.646.11 6.628 1.67 12.951 4.056 19.11 1.066 2.748-1.182 4.545-3.509 4.545M272.256 107.577a2.96 2.96 0 01-1.767-.553c-3.19-2.33-6.646-3.91-10.412-5.068-4.222-1.299-2.956-7.46.828-7.46.37 0 .763.059 1.178.187 4.344 1.336 8.529 3.137 12.214 5.828 1.656 1.209 2.471 3.249 1.352 5.16-.654 1.118-2.046 1.906-3.393 1.906M290.752 233.184c-1.26-.001-2.452-.572-3.179-1.812-.968-1.652-.508-4.287 1.352-5.16 3.234-1.516 5.551-4.05 7.446-7.027.792-1.244 1.946-1.76 3.096-1.76 2.632 0 5.24 2.702 3.417 5.567-2.537 3.987-5.804 7.693-10.15 9.733a4.68 4.68 0 01-1.982.459"/>
</svg>